<svg xmlns="http://www.w3.org/2000/svg" width="297.781" height="221.883" viewBox="0 0 297.781 221.883">
  <g id="Empty-rafiki" transform="translate(0 -55)">
    <g id="freepik--background-complete--inject-2" transform="translate(0 55)">
      <rect id="Rectangle_4533" data-name="Rectangle 4533" width="297.781" height="0.149" transform="translate(0 194.987)" fill="#ebebeb"/>
      <rect id="Rectangle_4534" data-name="Rectangle 4534" width="19.725" height="0.149" transform="translate(248.219 204.57)" fill="#ebebeb"/>
      <rect id="Rectangle_4535" data-name="Rectangle 4535" width="5.175" height="0.149" transform="translate(192.087 206.19)" fill="#ebebeb"/>
      <rect id="Rectangle_4536" data-name="Rectangle 4536" width="11.429" height="0.149" transform="translate(236.194 199.043)" fill="#ebebeb"/>
      <rect id="Rectangle_4537" data-name="Rectangle 4537" width="25.722" height="0.149" transform="translate(31.243 200.044)" fill="#ebebeb"/>
      <rect id="Rectangle_4538" data-name="Rectangle 4538" width="3.77" height="0.149" transform="translate(62.272 200.044)" fill="#ebebeb"/>
      <rect id="Rectangle_4539" data-name="Rectangle 4539" width="55.792" height="0.149" transform="translate(78.299 202.557)" fill="#ebebeb"/>
      <path id="Path_5676" data-name="Path 5676" d="M156.6,223.425H41.6a3.4,3.4,0,0,1-3.395-3.4V58.371A3.4,3.4,0,0,1,41.6,55h115a3.4,3.4,0,0,1,3.4,3.4V220.025A3.4,3.4,0,0,1,156.6,223.425ZM41.6,55.119a3.252,3.252,0,0,0-3.246,3.252V220.025a3.252,3.252,0,0,0,3.246,3.252h115a3.258,3.258,0,0,0,3.252-3.252V58.371a3.258,3.258,0,0,0-3.252-3.252Z" transform="translate(-15.454 -55)" fill="#ebebeb"/>
      <path id="Path_5677" data-name="Path 5677" d="M372.9,223.425h-115a3.407,3.407,0,0,1-3.4-3.4V58.371A3.407,3.407,0,0,1,257.9,55h115a3.4,3.4,0,0,1,3.389,3.371V220.025A3.4,3.4,0,0,1,372.9,223.425ZM257.9,55.119a3.258,3.258,0,0,0-3.252,3.252V220.025a3.258,3.258,0,0,0,3.252,3.252h115a3.258,3.258,0,0,0,3.252-3.252V58.371a3.258,3.258,0,0,0-3.252-3.252Z" transform="translate(-102.929 -55)" fill="#ebebeb"/>
      <rect id="Rectangle_4540" data-name="Rectangle 4540" width="75.291" height="5.312" transform="translate(54.81 137.498)" fill="#ebebeb"/>
      <rect id="Rectangle_4541" data-name="Rectangle 4541" width="32.738" height="5.312" transform="translate(97.363 137.498)" fill="#e0e0e0"/>
      <rect id="Rectangle_4542" data-name="Rectangle 4542" width="11.125" height="52.177" transform="translate(54.81 142.81)" fill="#ebebeb"/>
      <path id="Path_5678" data-name="Path 5678" d="M103.155,300.174,92.03,296.386v-1.6h11.125Z" transform="translate(-37.22 -151.98)" fill="#e0e0e0"/>
      <rect id="Rectangle_4543" data-name="Rectangle 4543" width="11.125" height="52.177" transform="translate(118.976 142.81)" fill="#e0e0e0"/>
      <rect id="Rectangle_4544" data-name="Rectangle 4544" width="11.125" height="52.177" transform="translate(97.363 142.81)" fill="#ebebeb"/>
      <path id="Path_5679" data-name="Path 5679" d="M174.6,300.174l-11.119-3.788v-1.6H174.6Z" transform="translate(-66.117 -151.98)" fill="#e0e0e0"/>
      <rect id="Rectangle_4545" data-name="Rectangle 4545" width="11.125" height="52.177" transform="translate(76.423 142.81)" fill="#e0e0e0"/>
      <rect id="Rectangle_4546" data-name="Rectangle 4546" width="94.891" height="80.8" transform="translate(42.285 19.159)" fill="#ebebeb"/>
      <rect id="Rectangle_4547" data-name="Rectangle 4547" width="1.06" height="80.8" transform="translate(138.236 99.953) rotate(180)" fill="#e0e0e0"/>
      <rect id="Rectangle_4548" data-name="Rectangle 4548" width="73.653" height="87.744" transform="translate(133.609 22.727) rotate(90)" fill="#f5f5f5"/>
      <path id="Path_5680" data-name="Path 5680" d="M148.89,170.267c5.36-17.867,6.849-44.221,18.248-40.588s-3.532,42.6-3.532,42.6Z" transform="translate(-60.217 -85.066)" fill="#fff"/>
      <path id="Path_5681" data-name="Path 5681" d="M144.954,159.146c-5.455-25.9-4.08-60.271-21.029-59.485s0,60.61,0,60.61Z" transform="translate(-47.073 -73.057)" fill="#fff"/>
      <path id="Path_5682" data-name="Path 5682" d="M157.154,194.669h-37.11a2.888,2.888,0,0,0-2.978,2.746c-.756,17.093,2.043,34.543,7.254,51.57h28.414c5.211-17.057,8.01-34.477,7.254-51.57A2.859,2.859,0,0,0,157.154,194.669Z" transform="translate(-47.297 -111.487)" fill="#ebebeb"/>
      <rect id="Rectangle_4549" data-name="Rectangle 4549" width="2.09" height="166.817" transform="translate(192.182 28.17)" fill="#e0e0e0"/>
      <rect id="Rectangle_4550" data-name="Rectangle 4550" width="2.09" height="166.817" transform="translate(241.31 28.17)" fill="#e0e0e0"/>
      <rect id="Rectangle_4551" data-name="Rectangle 4551" width="2.09" height="166.817" transform="translate(177.359 28.17)" fill="#ebebeb"/>
      <rect id="Rectangle_4552" data-name="Rectangle 4552" width="2.09" height="166.817" transform="translate(226.487 28.17)" fill="#ebebeb"/>
      <rect id="Rectangle_4553" data-name="Rectangle 4553" width="66.042" height="2.281" transform="translate(177.359 27.027)" fill="#ebebeb"/>
      <rect id="Rectangle_4554" data-name="Rectangle 4554" width="66.042" height="2.281" transform="translate(177.359 67.876)" fill="#ebebeb"/>
      <rect id="Rectangle_4555" data-name="Rectangle 4555" width="66.042" height="2.281" transform="translate(177.359 108.726)" fill="#ebebeb"/>
      <rect id="Rectangle_4556" data-name="Rectangle 4556" width="66.042" height="2.281" transform="translate(177.359 149.576)" fill="#ebebeb"/>
      <rect id="Rectangle_4557" data-name="Rectangle 4557" width="66.042" height="2.281" transform="translate(177.359 190.425)" fill="#ebebeb"/>
      <rect id="Rectangle_4558" data-name="Rectangle 4558" width="14.824" height="2.281" transform="translate(228.577 27.027)" fill="#e0e0e0"/>
      <rect id="Rectangle_4559" data-name="Rectangle 4559" width="14.824" height="2.281" transform="translate(228.577 67.876)" fill="#e0e0e0"/>
      <rect id="Rectangle_4560" data-name="Rectangle 4560" width="14.824" height="2.281" transform="translate(228.577 108.726)" fill="#e0e0e0"/>
      <rect id="Rectangle_4561" data-name="Rectangle 4561" width="14.824" height="2.281" transform="translate(228.577 149.576)" fill="#e0e0e0"/>
      <rect id="Rectangle_4562" data-name="Rectangle 4562" width="14.824" height="2.281" transform="translate(228.577 190.425)" fill="#e0e0e0"/>
      <path id="Path_5683" data-name="Path 5683" d="M331.974,121.526V118.31h-7.939v3.216a3.806,3.806,0,0,1-3.8,3.806h0a3.806,3.806,0,0,0-3.806,3.8V148.5h23.155V129.131a3.806,3.806,0,0,0-3.806-3.8h0A3.806,3.806,0,0,1,331.974,121.526Z" transform="translate(-127.976 -80.605)" fill="#f0f0f0"/>
      <rect id="Rectangle_4563" data-name="Rectangle 4563" width="34.793" height="13.287" transform="translate(185.637 95.445)" fill="#f0f0f0"/>
      <rect id="Rectangle_4564" data-name="Rectangle 4564" width="6.057" height="13.287" transform="translate(226.487 108.726) rotate(180)" fill="#e6e6e6"/>
      <rect id="Rectangle_4565" data-name="Rectangle 4565" width="6.057" height="1.465" transform="translate(226.487 102.818) rotate(180)" fill="#ebebeb"/>
      <rect id="Rectangle_4566" data-name="Rectangle 4566" width="34.793" height="1.465" transform="translate(185.637 101.353)" fill="#f5f5f5"/>
      <rect id="Rectangle_4567" data-name="Rectangle 4567" width="27.176" height="23.489" transform="translate(183.934 166.936)" fill="#f0f0f0"/>
      <rect id="Rectangle_4568" data-name="Rectangle 4568" width="4.729" height="23.489" transform="translate(215.838 190.431) rotate(180)" fill="#e6e6e6"/>
      <rect id="Rectangle_4569" data-name="Rectangle 4569" width="4.729" height="2.591" transform="translate(215.838 179.979) rotate(180)" fill="#ebebeb"/>
      <rect id="Rectangle_4570" data-name="Rectangle 4570" width="27.176" height="2.591" transform="translate(183.934 177.388)" fill="#f5f5f5"/>
      <rect id="Rectangle_4571" data-name="Rectangle 4571" width="4.729" height="0.923" transform="translate(215.838 175.572) rotate(180)" fill="#ebebeb"/>
      <rect id="Rectangle_4572" data-name="Rectangle 4572" width="27.176" height="0.923" transform="translate(183.934 174.649)" fill="#f5f5f5"/>
      <rect id="Rectangle_4573" data-name="Rectangle 4573" width="4.919" height="23.882" transform="translate(185.637 125.694)" fill="#f0f0f0"/>
      <rect id="Rectangle_4574" data-name="Rectangle 4574" width="4.919" height="6.861" transform="translate(185.637 134.204)" fill="#fafafa"/>
      <rect id="Rectangle_4575" data-name="Rectangle 4575" width="16.735" height="23.882" transform="translate(207.292 149.582) rotate(180)" fill="#e6e6e6"/>
      <rect id="Rectangle_4576" data-name="Rectangle 4576" width="5.557" height="26.967" transform="translate(192.599 122.609)" fill="#ebebeb"/>
      <rect id="Rectangle_4577" data-name="Rectangle 4577" width="5.557" height="4.151" transform="translate(192.599 131.179)" fill="#fafafa"/>
      <rect id="Rectangle_4578" data-name="Rectangle 4578" width="5.557" height="4.151" transform="translate(192.599 138.111)" fill="#fafafa"/>
      <rect id="Rectangle_4579" data-name="Rectangle 4579" width="18.897" height="26.967" transform="translate(217.059 149.576) rotate(180)" fill="#e0e0e0"/>
      <rect id="Rectangle_4580" data-name="Rectangle 4580" width="2.996" height="23.882" transform="translate(201.348 125.694)" fill="#f0f0f0"/>
      <rect id="Rectangle_4581" data-name="Rectangle 4581" width="1.965" height="17.831" transform="translate(201.86 128.719)" fill="#fafafa"/>
      <rect id="Rectangle_4582" data-name="Rectangle 4582" width="10.178" height="23.882" transform="translate(214.516 149.582) rotate(180)" fill="#e6e6e6"/>
      <rect id="Rectangle_4583" data-name="Rectangle 4583" width="3.383" height="25.139" transform="translate(208.959 124.437)" fill="#ebebeb"/>
      <rect id="Rectangle_4584" data-name="Rectangle 4584" width="3.383" height="3.871" transform="translate(208.959 132.423)" fill="#fafafa"/>
      <rect id="Rectangle_4585" data-name="Rectangle 4585" width="3.383" height="3.871" transform="translate(208.959 138.891)" fill="#fafafa"/>
      <rect id="Rectangle_4586" data-name="Rectangle 4586" width="11.494" height="25.139" transform="translate(223.836 149.576) rotate(180)" fill="#e0e0e0"/>
      <circle id="Ellipse_157" data-name="Ellipse 157" cx="7.409" cy="7.409" r="7.409" transform="translate(195.088 88.036) rotate(-45)" fill="#f5f5f5"/>
      <circle id="Ellipse_158" data-name="Ellipse 158" cx="5.134" cy="5.134" r="5.134" transform="translate(207.876 86.049) rotate(-9.22)" fill="#ebebeb"/>
    </g>
    <g id="freepik--Shadow--inject-2" transform="translate(33.417 263.399)">
      <ellipse id="freepik--path--inject-2" cx="115.474" cy="6.742" rx="115.474" ry="6.742" fill="#f5f5f5"/>
    </g>
    <g id="freepik--Box--inject-2" transform="translate(68.143 213.741)">
      <path id="Path_5684" data-name="Path 5684" d="M126.11,338.69H202.6v39.492a3.853,3.853,0,0,1-3.853,3.853H129.963a3.853,3.853,0,0,1-3.853-3.853Z" transform="translate(-119.146 -328.476)" fill="#407bff"/>
      <path id="Path_5685" data-name="Path 5685" d="M121.381,331.754h54.131l-6.658-8.522a5.728,5.728,0,0,0-4.05-1.691H116.122c-1.5,0-2.132.756-1.4,1.691Z" transform="translate(-114.417 -321.54)" fill="#407bff"/>
      <path id="Path_5686" data-name="Path 5686" d="M121.381,331.754h54.131l-6.658-8.522a5.728,5.728,0,0,0-4.05-1.691H116.122c-1.5,0-2.132.756-1.4,1.691Z" transform="translate(-114.417 -321.54)" opacity="0.2"/>
      <path id="Path_5687" data-name="Path 5687" d="M217.795,334.168H163.67l6.658-5.557a7.613,7.613,0,0,1,4.05-1.1h48.675c1.507,0,2.132.494,1.4,1.1Z" transform="translate(-134.337 -323.954)" fill="#407bff"/>
      <path id="Path_5688" data-name="Path 5688" d="M163.67,338.69h54.125v39.492a3.853,3.853,0,0,1-3.853,3.853H167.523a3.853,3.853,0,0,1-3.853-3.853Z" transform="translate(-134.337 -328.476)" fill="#fff" opacity="0.2"/>
      <path id="Path_5689" data-name="Path 5689" d="M137.39,338.69v27.086l1.87-1.477,1.316,1.477,1.143-1.644,1.173,1.644,1.632-1.233,1.8,1.233V338.69Z" transform="translate(-123.708 -328.476)" fill="#fff" opacity="0.5"/>
    </g>
    <g id="freepik--Character--inject-2" transform="translate(77.417 72.903)">
      <line id="Line_292" data-name="Line 292" x1="9.618" y1="8.076" transform="translate(6.897 83.891)" fill="none" stroke="#407bff" stroke-miterlimit="10" stroke-width="1"/>
      <line id="Line_293" data-name="Line 293" x1="2.93" y1="2.466" transform="translate(18.57 93.688)" fill="none" stroke="#407bff" stroke-miterlimit="10" stroke-width="1"/>
      <path id="Path_5690" data-name="Path 5690" d="M185.093,223.87l31.732-39.659L174.576,148.74l-27.991,32.119-4.169,8.034a2.239,2.239,0,0,0,.28,3.27l38.116,32.006A3.156,3.156,0,0,0,185.093,223.87Z" transform="translate(-134.78 -110.815)" fill="#407bff"/>
      <path id="Path_5691" data-name="Path 5691" d="M174.828,225.78l-4.568,7.355,1.84.4.625,1.7,1.221.071.566,1.459,1.495.435,1.149,1.828,4.568-7.355Z" transform="translate(-146.277 -141.972)" fill="#fff" opacity="0.5"/>
      <path id="Path_5692" data-name="Path 5692" d="M218.657,183.05,190.2,214.794,149.78,180.859l28.009-32.119Z" transform="translate(-137.994 -110.815)" opacity="0.1"/>
      <path id="Path_5693" data-name="Path 5693" d="M246.106,206.35,217.65,238.094l11.78.87,28.015-32.119Z" transform="translate(-165.443 -134.114)" fill="#407bff"/>
      <path id="Path_5694" data-name="Path 5694" d="M246.106,206.35,217.65,238.094l11.78.87,28.015-32.119Z" transform="translate(-165.443 -134.114)" opacity="0.3"/>
      <path id="Path_5695" data-name="Path 5695" d="M158.452,147.9,129.99,179.649l11.786.87L169.786,148.4Z" transform="translate(-129.99 -110.475)" fill="#407bff"/>
      <path id="Path_5696" data-name="Path 5696" d="M158.452,147.9,129.99,179.649l11.786.87L169.786,148.4Z" transform="translate(-129.99 -110.475)" opacity="0.4"/>
      <path id="Path_5697" data-name="Path 5697" d="M225.366,192.824l8.761-9.773-40.868-34.31-5.229,12.6Z" transform="translate(-153.464 -110.815)" opacity="0.1"/>
      <path id="Path_5698" data-name="Path 5698" d="M149.78,180.859l28.009-32.119-5.229,12.6-19.725,22.083Z" transform="translate(-137.994 -110.815)" opacity="0.2"/>
      <path id="Path_5699" data-name="Path 5699" d="M281.355,105.607c.113.381,0,.756-.25.828s-.542-.179-.655-.56,0-.756.25-.834S281.248,105.225,281.355,105.607Z" transform="translate(-190.824 -93.135)" fill="#263238"/>
      <path id="Path_5700" data-name="Path 5700" d="M281.48,107.26a14.292,14.292,0,0,1-.87,3.829,2.317,2.317,0,0,0,1.942-.2Z" transform="translate(-190.906 -94.039)" fill="#ed847e"/>
      <path id="Path_5701" data-name="Path 5701" d="M281.811,101.334a.238.238,0,0,0,.107-.131.226.226,0,0,0-.143-.3,2.323,2.323,0,0,0-2.132.244.238.238,0,0,0,.286.375h0a1.858,1.858,0,0,1,1.691-.179A.238.238,0,0,0,281.811,101.334Z" transform="translate(-190.488 -91.406)" fill="#263238"/>
      <path id="Path_5702" data-name="Path 5702" d="M298.109,109.852c.262,3.156,1.042,8.933,2.906,10.268,0,0-.441,3.794-7.147,4.764-7.349,1.084-4.05-3.133-4.05-3.133,3.865-1.548,3.323-4.508,2.215-7.2l2.835-3.252C295.959,110.1,297.966,108.238,298.109,109.852Z" transform="translate(-194.332 -94.832)" fill="#ffc3bd"/>
      <path id="Path_5703" data-name="Path 5703" d="M303.316,127.86c.6-.542-.6-2.71-1.328-3.014-1.918-.8-9.761,0-12.709,2.531a3.252,3.252,0,0,0-.232,2.793Z" transform="translate(-194.233 -101.03)" fill="#fff"/>
      <path id="Path_5704" data-name="Path 5704" d="M354.123,396.724a1.6,1.6,0,0,1-1.239.036.488.488,0,0,1-.161-.536.542.542,0,0,1,.274-.369c.643-.375,2.233.119,2.3.143a.113.113,0,0,1,.083.1.119.119,0,0,1-.06.119A6.41,6.41,0,0,1,354.123,396.724Zm-.87-.727-.137.06a.322.322,0,0,0-.161.214c-.042.214.042.28.065.3.286.2,1.257-.089,1.93-.429A3.9,3.9,0,0,0,353.253,396Z" transform="translate(-220.062 -210.7)" fill="#407bff"/>
      <path id="Path_5705" data-name="Path 5705" d="M355.724,395.28a.1.1,0,0,1-.06,0c-.6-.119-1.84-.864-1.906-1.423a.381.381,0,0,1,.268-.4.643.643,0,0,1,.524,0c.691.286,1.227,1.62,1.245,1.673a.107.107,0,0,1,0,.119.089.089,0,0,1-.072.036Zm-1.548-1.626a.1.1,0,0,0-.054,0c-.137.06-.131.131-.125.161.036.334.881.935,1.483,1.155a2.939,2.939,0,0,0-1.018-1.316.4.4,0,0,0-.286,0Z" transform="translate(-220.489 -209.763)" fill="#407bff"/>
      <path id="Path_5706" data-name="Path 5706" d="M295.433,407.336c-.637,0-1.251-.089-1.459-.375a.441.441,0,0,1,0-.512.6.6,0,0,1,.369-.28c.828-.22,2.567.768,2.638.81a.113.113,0,0,1-.036.214A8.419,8.419,0,0,1,295.433,407.336Zm-.786-.965a.672.672,0,0,0-.226.03.375.375,0,0,0-.232.161c-.083.149-.054.22,0,.262.232.322,1.489.328,2.382.2A5.288,5.288,0,0,0,294.647,406.371Z" transform="translate(-196.278 -214.915)" fill="#407bff"/>
      <path id="Path_5707" data-name="Path 5707" d="M297.812,406.4h-.048c-.6-.268-1.787-1.346-1.7-1.906,0-.131.119-.3.441-.328a.846.846,0,0,1,.649.2,3.335,3.335,0,0,1,.774,1.912.107.107,0,0,1-.048.107A.113.113,0,0,1,297.812,406.4Zm-1.191-2.013h-.071c-.214,0-.226.107-.232.131-.054.339.756,1.191,1.364,1.554a2.722,2.722,0,0,0-.655-1.537A.6.6,0,0,0,296.621,404.387Z" transform="translate(-197.156 -214.116)" fill="#407bff"/>
      <path id="Path_5708" data-name="Path 5708" d="M304.467,399.906h-4.973L299,388.4h4.973Z" transform="translate(-198.344 -207.742)" fill="#ffc3bd"/>
      <path id="Path_5709" data-name="Path 5709" d="M360.492,387.165l-4.58,1.578L351.16,377.9l4.58-1.578Z" transform="translate(-219.439 -202.856)" fill="#ffc3bd"/>
      <path id="Path_5710" data-name="Path 5710" d="M352.634,394.145l5.36-1.638a.435.435,0,0,1,.506.2l2.233,3.931a.733.733,0,0,1-.435,1.06c-1.876.542-2.811.709-5.158,1.429-1.447.441-5.092,1.822-7.147,2.233s-2.716-1.554-1.918-1.906c3.573-1.578,5.038-3.371,5.89-4.764A1.227,1.227,0,0,1,352.634,394.145Z" transform="translate(-217.251 -209.395)" fill="#263238"/>
      <path id="Path_5711" data-name="Path 5711" d="M292.605,406.75h5.426a.441.441,0,0,1,.423.339l.983,4.419a.721.721,0,0,1-.715.881c-1.959-.03-4.764-.149-7.248-.149-2.877,0-4.086.161-7.462.161-2.037,0-2.6-2.061-1.751-2.251,3.889-.852,5.789-.941,9.148-3.014A2.34,2.34,0,0,1,292.605,406.75Z" transform="translate(-191.419 -215.163)" fill="#263238"/>
      <path id="Path_5712" data-name="Path 5712" d="M317.847,132.84c1.447,1.328,2.7,2.656,4,4.044a56.214,56.214,0,0,1,3.669,4.354,41.53,41.53,0,0,1,3.311,4.907,21.408,21.408,0,0,1,1.394,2.942c.1.28.2.548.286.852a9.249,9.249,0,0,1,.244.935l.1.494.071.548a5.748,5.748,0,0,1,0,1.513,6.319,6.319,0,0,1-1.024,2.644,8.784,8.784,0,0,1-1.37,1.578,15.891,15.891,0,0,1-2.716,1.983,35.277,35.277,0,0,1-5.36,2.5,64.588,64.588,0,0,1-10.827,2.978l-1.042-3.573c3.234-1.4,6.509-2.912,9.529-4.526a36.07,36.07,0,0,0,4.234-2.609,9.529,9.529,0,0,0,1.543-1.37,2.163,2.163,0,0,0,.351-.506c.048-.1,0-.089-.06.125-.042.4-.036.089-.131-.125-.03-.1-.083-.238-.137-.369s-.119-.28-.185-.423a18.84,18.84,0,0,0-1.078-1.888,45.011,45.011,0,0,0-2.978-3.937c-1.1-1.3-2.251-2.591-3.436-3.859s-2.43-2.549-3.573-3.728Z" transform="translate(-202.218 -104.384)" fill="#ffc3bd"/>
      <path id="Path_5713" data-name="Path 5713" d="M307.687,180.07,303,181.487l3.014,4.955s2.769-1.143,3.383-3.5Z" transform="translate(-199.962 -123.486)" fill="#ffc3bd"/>
      <path id="Path_5714" data-name="Path 5714" d="M299.82,184.207l1.846,4.086,3.031-.881-3.014-4.961Z" transform="translate(-198.676 -124.448)" fill="#ffc3bd"/>
      <path id="Path_5715" data-name="Path 5715" d="M305.69,131.951c-.447,4.765,9.63,12.138,9.63,12.138l9.7-6.641a20.416,20.416,0,0,0-7.147-7.593C312.313,126.293,306.25,126.031,305.69,131.951Z" transform="translate(-201.044 -102.149)" fill="#407bff"/>
      <g id="Group_2805" data-name="Group 2805" transform="translate(104.632 25.165)" opacity="0.3">
        <path id="Path_5716" data-name="Path 5716" d="M305.69,131.951c-.447,4.765,9.63,12.138,9.63,12.138l9.7-6.641a20.416,20.416,0,0,0-7.147-7.593C312.313,126.293,306.25,126.031,305.69,131.951Z" transform="translate(-305.676 -127.314)" fill="#fff"/>
      </g>
      <path id="Path_5717" data-name="Path 5717" d="M277.382,131.53s-4.354,6.682,5.985,42.523l26.288-3.883c-.369-3.633-4.764-19.481-4.913-36.806a6.194,6.194,0,0,0-6.515-6.14c-.762.042-1.548.1-2.329.173a97.972,97.972,0,0,0-11.173,1.65,50.4,50.4,0,0,0-7.343,2.483Z" transform="translate(-189.233 -102.109)" fill="#407bff"/>
      <g id="Group_2806" data-name="Group 2806" transform="translate(87.239 25.107)" opacity="0.3">
        <path id="Path_5718" data-name="Path 5718" d="M277.382,131.53s-4.354,6.682,5.985,42.523l26.288-3.883c-.369-3.633-4.764-19.481-4.913-36.806a6.194,6.194,0,0,0-6.515-6.14c-.762.042-1.548.1-2.329.173a97.972,97.972,0,0,0-11.173,1.65,50.4,50.4,0,0,0-7.343,2.483Z" transform="translate(-276.472 -127.216)" fill="#fff"/>
      </g>
      <path id="Path_5719" data-name="Path 5719" d="M276.92,153.731l.089-.1,6.182.548c.941,3.99-2.5,9.434-4.318,11.959a116.138,116.138,0,0,1-1.953-12.406Z" transform="translate(-189.414 -112.792)" opacity="0.2"/>
      <path id="Path_5720" data-name="Path 5720" d="M299,388.41l.256,5.932h4.973l-.256-5.932Z" transform="translate(-198.344 -207.746)" opacity="0.2"/>
      <path id="Path_5721" data-name="Path 5721" d="M355.74,376.32l-4.58,1.578,2.454,5.592,4.58-1.578Z" transform="translate(-219.439 -202.856)" opacity="0.2"/>
      <path id="Path_5722" data-name="Path 5722" d="M294.068,94.733c1.1,4.806,1.977,7.564.3,10.72-2.513,4.7-8.981,4.246-11.488-.137-2.257-3.949-3.675-11.143.4-14.383a6.73,6.73,0,0,1,10.786,3.8Z" transform="translate(-190.94 -86.836)" fill="#ffc3bd"/>
      <path id="Path_5723" data-name="Path 5723" d="M283.567,99.128l-1.828,1.12.173-6.253a5.4,5.4,0,0,1-3.311-.959c.661-.631,10.952-4.234,14.163-3.609.333-.137.738-.756.738-.756s.125.78-.417,1.078a1.757,1.757,0,0,1,1.65.691,2.15,2.15,0,0,0-1.364.077s3.573.542,2.3,5.5c-1.423,5.461-.953,8.6-.953,8.6s-2.656,2.055-4.967,1.674C287.289,103.571,283.728,100.307,283.567,99.128Z" transform="translate(-190.093 -86.52)" fill="#263238"/>
      <path id="Path_5724" data-name="Path 5724" d="M277.877,92.154a4.854,4.854,0,0,1-4.687-2.609c2.084-.22,6.426-1.56,9.648-1.787s6.754.375,5.688,1.787S277.877,92.154,277.877,92.154Z" transform="translate(-187.905 -86.133)" fill="#263238"/>
      <path id="Path_5725" data-name="Path 5725" d="M279.719,89.789c-2.382-.334-4.7-2.579-2.918-4.729.661,1.578,5.122,1.394,8.29.733,4.169-.87,7.057.536,5.58,3.377C289.861,90.724,279.719,89.789,279.719,89.789Z" transform="translate(-189.11 -85.06)" fill="#263238"/>
      <path id="Path_5726" data-name="Path 5726" d="M288.953,102.819a5.592,5.592,0,0,1-.155,3.573c-.6,1.495-1.918,1.191-2.609-.1-.6-1.191-1.048-3.353-.036-4.431S288.524,101.407,288.953,102.819Z" transform="translate(-192.906 -91.634)" fill="#ffc3bd"/>
      <path id="Path_5727" data-name="Path 5727" d="M303.71,201.847s4.264,36.3,7.361,50.522c3.389,15.58,20.106,58.055,20.106,58.055l8.338-2.883S328.8,275.56,325.948,253.78c-2.186-16.723-5.3-54.44-5.3-54.44Z" transform="translate(-200.249 -131.279)" fill="#263238"/>
      <path id="Path_5728" data-name="Path 5728" d="M346.25,379.685c-.042,0,1.709,3.573,1.709,3.573L357.7,380.1l-1.143-2.906Z" transform="translate(-217.453 -203.208)" fill="#407bff"/>
      <path id="Path_5729" data-name="Path 5729" d="M307.66,234.82c1.334,10.089,3.043,22.036,4.544,29.665C314.414,252.794,314.932,238.03,307.66,234.82Z" transform="translate(-201.846 -145.629)" opacity="0.3"/>
      <path id="Path_5730" data-name="Path 5730" d="M285.987,203.963s-3.538,34.1-2.978,49.253c.56,15.759,7.921,64.249,7.921,64.249h8.415s-1.548-47.574-1.191-63.046c.411-16.872,6.736-53.249,6.736-53.249Z" transform="translate(-191.852 -132.019)" fill="#263238"/>
      <path id="Path_5731" data-name="Path 5731" d="M293.6,390.81c-.036,0,.476,3.49.476,3.49h10.238l.28-3.115Z" transform="translate(-196.159 -208.717)" fill="#407bff"/>
      <path id="Path_5732" data-name="Path 5732" d="M262.265,145.762c-.929,1.477-1.87,2.805-2.847,4.169s-2,2.68-3.043,3.99a75.382,75.382,0,0,1-6.891,7.516c-.667.6-1.28,1.191-2,1.733l-.524.423-.262.208c-.1.077-.137.119-.333.262a7.492,7.492,0,0,1-1.924.989,11.185,11.185,0,0,1-3.293.6,18.355,18.355,0,0,1-2.841-.125,35.775,35.775,0,0,1-9.976-2.823l1.03-3.573a65.6,65.6,0,0,0,9.184.441,18.172,18.172,0,0,0,2.025-.22,4.872,4.872,0,0,0,1.453-.453c.143-.077.22-.155.2-.173s.077-.077.131-.131l.2-.185.4-.375c.536-.476,1.042-1.054,1.566-1.578,1.03-1.108,2.055-2.245,3.025-3.454s1.953-2.424,2.906-3.675,1.876-2.519,2.805-3.788,1.834-2.6,2.692-3.835Z" transform="translate(-169.762 -107.967)" fill="#ffc3bd"/>
      <path id="Path_5733" data-name="Path 5733" d="M279.46,141.129c2,6.551-9.618,13.811-9.618,13.811l-7.552-9.618a42.125,42.125,0,0,1,6.253-8.749C273.683,130.98,277.935,136.144,279.46,141.129Z" transform="translate(-183.497 -104.913)" fill="#407bff"/>
      <g id="Group_2807" data-name="Group 2807" transform="translate(78.793 29.234)" opacity="0.3">
        <path id="Path_5734" data-name="Path 5734" d="M279.46,141.129c2,6.551-9.618,13.811-9.618,13.811l-7.552-9.618a42.125,42.125,0,0,1,6.253-8.749C273.683,130.98,277.935,136.144,279.46,141.129Z" transform="translate(-262.29 -134.147)" fill="#fff"/>
      </g>
      <path id="Path_5735" data-name="Path 5735" d="M228.846,170.57l-6.116-1.12.643,5.289a4.391,4.391,0,0,0,5.485-1.007Z" transform="translate(-167.498 -119.19)" fill="#ffc3bd"/>
      <path id="Path_5736" data-name="Path 5736" d="M218.77,170.641l1.322,3.818,1.668.28-.643-5.289Z" transform="translate(-165.896 -119.19)" fill="#ffc3bd"/>
    </g>
  </g>
</svg>
