<svg height="245.641" viewBox="0 0 329.666 245.641" width="329.666" xmlns="http://www.w3.org/2000/svg"><g fill="#e6e6e6"><path d="m0 215.865h329.666v.165h-329.666z"/><path d="m60.461 225.841h21.837v.165h-21.837z"/><path d="m40.898 225.841h12.653v.165h-12.653z"/><path d="m126.17 228.267h12.653v.165h-12.653z"/><path d="m176.318 231.946h28.477v.165h-28.477z"/><path d="m166.277 231.946h4.174v.165h-4.174z"/><path d="m237.142 228.267h61.766v.165h-61.766z"/><path d="m169.279 241.459h-127.311a3.765 3.765 0 0 1 -3.758-3.765v-178.962a3.765 3.765 0 0 1 3.758-3.732h127.31a3.765 3.765 0 0 1 3.765 3.765v178.929a3.765 3.765 0 0 1 -3.764 3.765zm-127.311-186.327a3.6 3.6 0 0 0 -3.593 3.6v178.962a3.6 3.6 0 0 0 3.593 3.6h127.31a3.607 3.607 0 0 0 3.6-3.6v-178.962a3.607 3.607 0 0 0 -3.6-3.6z" transform="translate(-13.017 -55)"/><path d="m385.582 241.459h-127.317a3.771 3.771 0 0 1 -3.765-3.765v-178.962a3.771 3.771 0 0 1 3.765-3.732h127.317a3.765 3.765 0 0 1 3.752 3.732v178.962a3.765 3.765 0 0 1 -3.752 3.765zm-127.317-186.327a3.607 3.607 0 0 0 -3.6 3.6v178.962a3.607 3.607 0 0 0 3.6 3.6h127.317a3.607 3.607 0 0 0 3.6-3.6v-178.962a3.607 3.607 0 0 0 -3.6-3.6z" transform="translate(-86.7 -55)"/></g><path d="m161.807 159.545h14.499v57.514h-14.499z" fill="#e0e0e0"/><path d="m261.728 380.163h2.756v-7.833h-5.644z" fill="#fafafa" transform="translate(-88.179 -163.104)"/><path d="m98.273 159.545h14.499v57.514h-14.499z" fill="#e0e0e0"/><path d="m110.372 159.545h65.933v52.707h-65.933z" fill="#fafafa"/><path d="m232.044 300.777v13.945h-61.167v-13.945h61.146m.257-.257h-61.64v14.453h61.66v-14.453z" fill="#e0e0e0" transform="translate(-58.132 -138.641)"/><path d="m170.149 380.163h-2.749v-7.833h5.637z" fill="#fafafa" transform="translate(-57.028 -163.104)"/><path d="m215.19 310.727a1.457 1.457 0 1 0 1.457-1.457 1.457 1.457 0 0 0 -1.457 1.457z" fill="#e6e6e6" transform="translate(-73.308 -141.622)"/><path d="m232.044 326.24v13.945h-61.167v-13.945h61.146m.257-.25h-61.64v14.453h61.66v-14.443z" fill="#e0e0e0" transform="translate(-58.132 -147.318)"/><path d="m215.19 336.247a1.457 1.457 0 1 0 1.457-1.457 1.457 1.457 0 0 0 -1.457 1.457z" fill="#e6e6e6" transform="translate(-73.308 -150.316)"/><path d="m232.044 351.707v13.951h-61.167v-13.951h61.146m.257-.257h-61.64v14.459h61.66v-14.459z" fill="#e0e0e0" transform="translate(-58.132 -155.991)"/><path d="m215.19 361.664a1.457 1.457 0 1 0 .424-1.035 1.457 1.457 0 0 0 -.424 1.035z" fill="#e6e6e6" transform="translate(-73.308 -158.972)"/><path d="m89.419 126.143h14.499v90.922h-14.499z" fill="#e0e0e0"/><path d="m151.941 380.163h2.759v-7.833h-5.64z" fill="#fafafa" transform="translate(-50.78 -163.104)"/><path d="m35.235 126.143h14.499v90.922h-14.499z" fill="#e0e0e0"/><path d="m47.327 126.143h56.59v86.115h-56.59z" fill="#fafafa"/><path d="m127.028 249.847v19.5h-51.712v-19.5h51.711m.3-.3h-52.327v20.077h52.318v-20.07z" fill="#e0e0e0" transform="translate(-25.55 -121.277)"/><path d="m141.029 283.023v51.711h-24.629v-51.711h24.633m.3-.3h-25.233v52.318h25.233v-52.321z" fill="#e0e0e0" transform="translate(-39.552 -132.577)"/><path d="m99.949 283.023v51.711h-24.633v-51.711zm.3-.3h-25.249v52.318h25.233v-52.321z" fill="#e0e0e0" transform="translate(-25.55 -132.577)"/><path d="m74.536 380.163h-2.756v-7.833h5.644z" fill="#fafafa" transform="translate(-24.453 -163.104)"/><path d="m112.48 264.047a1.464 1.464 0 1 0 1.464-1.457 1.464 1.464 0 0 0 -1.464 1.457z" fill="#e6e6e6" transform="translate(-38.318 -125.719)"/><path d="m120.4 319.774a1.457 1.457 0 1 0 .424-1.035 1.464 1.464 0 0 0 -.424 1.035z" fill="#e6e6e6" transform="translate(-41.016 -144.701)"/><path d="m104.57 319.774a1.457 1.457 0 1 0 .424-1.035 1.457 1.457 0 0 0 -.424 1.035z" fill="#e6e6e6" transform="translate(-35.624 -144.701)"/><path d="m98.64 207.87h-6.112a64.578 64.578 0 0 1 1.062 8.98c0 3.3-4.655 16.371 1.978 16.371s1.978-13.042 1.978-16.371a64.575 64.575 0 0 1 1.094-8.98z" fill="#e0e0e0" transform="translate(-31.342 -107.078)"/><path d="m66.8 228.15v3.956a8.031 8.031 0 0 0 8 8h3.96a8.031 8.031 0 0 0 8-8v-3.956z" fill="#f5f5f5" transform="translate(-22.757 -113.987)"/><path d="m195.67 284.26c0 4.615 5.163 8.387 11.472 8.387h5.7c6.31 0 11.472-3.771 11.472-8.387z" fill="#e0e0e0" transform="translate(-66.659 -133.102)"/><path d="m403.959 232.154a60.275 60.275 0 0 0 -12.593 15.25 39.245 39.245 0 0 0 -5.439 16.6c0-7.582.046-15.725.073-23.413.877-1.978 2.881-6.541 4.319-10.141 4.793-12.02 6.593-14.98 10.9-25.345 5.756-13.846 11.65-30.237 9.963-28.925-3.442 2.67-16.628 27.362-18.053 30.9a98.9 98.9 0 0 0 -7.114 29.571c0-7.253.053-13.846.079-18.962.092-16.688.376-22.074.514-23.736.534-.844 1.16-1.826 1.53-2.354 3.1-4.483 4.292-8.294 7.207-14.98 4.141-9.461 7.7-26.268 6.659-25.424-4.338 3.534-7.754 11.116-12.25 20.789s-3.211 15.231-4.1 23.485c-.185 1.622-.33 7.741-.435 16.213-1.16-9.033-3.349-14.98-7.338-20.387-4.905-6.653-9.653-11.143-13.134-13.49s6.013 13.991 10.549 21.1c4.042 6.356 7.767 11.954 9.89 17.472-.112 11.492-.165 26.037-.165 39.56a79.592 79.592 0 0 0 -5.016-17.937c-2.73-6.171-6.923-15.639-10.266-18.85-.8-.771 3.494 17.644 6.25 22.536s4.78 9.514 6.514 12.29c.4.659 1.747 3.145 2.512 4.582 0 16.529.092 31.114.237 36.079h.712c-.046-1.279-.059-9.692-.04-20.822 1.721-6.039 5.65-12.936 8.894-19.226 3.537-6.809 12.596-25.238 9.141-22.435z" fill="#e0e0e0" transform="translate(-124 -87.76)"/><path d="m400.956 373.745h-20.663l-1.563-20.255h23.789z" fill="#f0f0f0" transform="translate(-129.021 -156.686)"/><path d="m402.863 353.537h-26.868l-.765-6.837h28.4z" fill="#f5f5f5" transform="translate(-127.829 -154.373)"/><path d="m44.973 13.516h36.956v40.582h-36.956z" fill="#e0e0e0"/><path d="m47.755 13.516h38.175v40.582h-38.175z" fill="#f5f5f5"/><path d="m0 0h34.186v31.78h-34.186z" fill="#fff" transform="matrix(0 1 -1 0 82.733 16.714)"/><path d="m0 0h17.611v16.371h-17.611z" fill="#f5f5f5" transform="matrix(0 1 -1 0 75.025 24.995)"/><path d="m236.028 18.244h34.331v37.701h-34.331z" fill="#e0e0e0"/><path d="m238.619 18.244h35.459v37.701h-35.459z" fill="#f5f5f5"/><path d="m0 0h31.753v29.518h-31.753z" fill="#fff" transform="matrix(0 1 -1 0 271.111 21.217)"/><circle cx="256.348" cy="37.094" fill="#f5f5f5" r="9.211"/><path d="m92.906 37.714h27.415v30.105h-27.415z" fill="#e0e0e0"/><path d="m94.97 37.714h28.318v30.105h-28.318z" fill="#f5f5f5"/><path d="m0 0h25.358v23.571h-25.358z" fill="#fff" transform="matrix(0 1 -1 0 120.915 40.087)"/><path d="m162.188 125.3-6.448 11.169h12.9z" fill="#f5f5f5" transform="translate(-53.056 -78.949)"/><ellipse cx="164.833" cy="238.177" fill="#f5f5f5" rx="127.838" ry="7.464"/><path d="m331.945 162.067-6.545-2.637s-8.631 15.738-11.1 16.536c-3.363 1.081-10.325 4.088-14.453 4.615a7.434 7.434 0 0 0 -1.391 3.455c5.545 1.853 17.729-.607 20.34-2.545 5.942-4.398 13.149-19.424 13.149-19.424z" fill="#e58a7b" transform="translate(-101.673 -90.576)"/><path d="m345.044 156.118c1.22 4.5-5.387 13.562-5.387 13.562l-8.657-4.852s1.622-3.725 3.6-7.516c3.171-6.126 9.053-6.33 10.444-1.194z" fill="#b0bec5" transform="translate(-112.761 -88.206)"/><path d="m345.044 156.118c1.22 4.5-5.387 13.562-5.387 13.562l-8.657-4.852s1.622-3.725 3.6-7.516c3.171-6.126 9.053-6.33 10.444-1.194z" opacity=".2" transform="translate(-112.761 -88.206)"/><path d="m336.21 169.732 3.409 1.912.6-10.464c-1.985 1.52-3.383 6.112-4.009 8.552z" opacity=".2" transform="translate(-114.536 -91.172)"/><path d="m341.573 152.064s-6.738 14.993-2.809 42.909h26.551c.422-4.075-.976-23.96 4.081-43.16a67.54 67.54 0 0 0 -8.822-1.128 97.5 97.5 0 0 0 -11.281 0 52.046 52.046 0 0 0 -7.721 1.378z" fill="#b0bec5" transform="translate(-114.987 -87.541)"/><path d="m341.573 152.064s-6.738 14.993-2.809 42.909h26.551c.422-4.075-.976-23.96 4.081-43.16a67.54 67.54 0 0 0 -8.822-1.128 97.5 97.5 0 0 0 -11.281 0 52.046 52.046 0 0 0 -7.721 1.378z" opacity=".2" transform="translate(-114.987 -87.541)"/><path d="m334.32 416.479c-.04.712 10.028 1.286 22.483 1.286s22.6-.574 22.635-1.286-10.022-1.279-22.483-1.279-22.589.574-22.635 1.279z" fill="#e8ecf1" transform="translate(-113.893 -177.708)"/><path d="m0 0h5.05v11.237h-5.05z" fill="#e58a7b" transform="matrix(.93256974 -.36098987 .36098987 .93256974 233.441 221.884)"/><path d="m389.544 403.512h-4.964l-1.82-11.492h4.965z" fill="#e58a7b" transform="translate(-130.394 -169.812)"/><path d="m380.869 408.58h5.578a.409.409 0 0 1 .4.343l.719 4.411a.778.778 0 0 1 -.778.884c-1.945-.033-2.881-.152-5.334-.152-1.51 0-4.615.158-6.712.158s-2.235-2.057-1.371-2.248c3.877-.837 5.38-1.978 6.672-3.086a1.246 1.246 0 0 1 .826-.31z" fill="#263238" transform="translate(-127.026 -175.453)"/><path d="m354.551 405.195 5.275-1.543a.428.428 0 0 1 .494.211l1.978 3.956a.758.758 0 0 1 -.495 1.048c-1.919.527-3.2.851-5.6 1.549-1.655.481-3.343 1.266-4.978 1.787a23.709 23.709 0 0 1 -5.176.376c-2.037 0-2.492-2.149-1.615-2.248 2.209-.244 2.505-.132 3.725-.745a16.939 16.939 0 0 0 5.327-3.679 2.473 2.473 0 0 1 1.065-.712z" fill="#263238" transform="translate(-117.192 -173.769)"/><path d="m297.848 190.288-5.46-2.288-2.248 6.053a22.417 22.417 0 0 0 6.752 0z" fill="#e58a7b" transform="translate(-98.842 -100.309)"/><path d="m287.315 187.76-.145 4.022 1.958 2.176 2.248-6.053z" fill="#e58a7b" transform="translate(-97.83 -100.227)"/><path d="m0 0h5.064v5.809h-5.064z" fill="#cf6f64" transform="matrix(.93289069 -.36015963 .36015963 .93289069 234.073 222.774)"/><path d="m387.725 392.02h-4.965l.943 5.927h4.965z" fill="#cf6f64" transform="translate(-130.394 -169.812)"/><path d="m338.12 196.284c.1 1.193.211 2.413.356 3.666l19.74-6.409a14.136 14.136 0 0 0 7.6-5.492c.079-1.76.178-3.613.33-5.545.066-.936.145-1.9.231-2.875s.2-2.057.33-3.1z" opacity=".2" transform="translate(-115.187 -96.401)"/><path d="m347.559 170.637-.659-.079c.389-3.3 2.848-5.894 5.439-5.829v.659c-2.268-.045-4.43 2.295-4.78 5.249z" fill="#fff" transform="translate(-118.178 -92.381)"/><path d="m353.172 179.878h-.112v-.659c2.268.086 4.4-2.281 4.747-5.228l.659.079c-.349 3.223-2.729 5.808-5.294 5.808z" fill="#fff" transform="translate(-120.277 -95.536)"/><path d="m365.825 131.5c-.93 3.633-2.024 10.286.369 12.705 0 0-1.675 3.686-8.42 3.686-6.165 0-2.861-3.686-2.861-3.686 4.1-.963 4.174-3.956 3.633-6.791z" fill="#e58a7b" transform="translate(-120.607 -81.061)"/><path d="m365.2 135.16-4.305 3.5a11.606 11.606 0 0 1 .231 1.978c1.259 1.253 3.785-1.919 4.042-3.541a5.275 5.275 0 0 0 .032-1.937z" fill="#cf6f64" transform="translate(-122.944 -82.308)"/><path d="m349.5 129.712a4.358 4.358 0 0 0 2.8 2.07c1.582.349 2.374-1.108 1.938-2.571-.389-1.319-1.688-3.092-3.3-2.789a2.2 2.2 0 0 0 -1.444 3.29z" fill="#cf6f64" transform="translate(-118.956 -79.319)"/><path d="m352.48 113.7c-2.466 1.127-3.336 10.925-.237 12.376s4.905-14.521.237-12.376z" fill="#263238" transform="translate(-119.321 -74.929)"/><path d="m365.661 119.466c-.593 4.919-.659 7.813-3.3 10.332a6.343 6.343 0 0 1 -10.787-3.363c-.8-4.418.3-11.716 5.235-13.675a6.349 6.349 0 0 1 8.848 6.705z" fill="#e58a7b" transform="translate(-119.691 -74.493)"/><path d="m355.61 110.805c3.653-.93 6.336-1.563 5.374 1.477-1.273 4.061-2.8 7.991-.752 8.169 1.253.112 6.791-2.235 6.086-4.615-.613-2.07 1.978-2.637 2.44-3.686 1.708-3.8-3.178-3.3-2.308-5.6s-3.956-6.026-6.593-4.174c-4.292 2.993-11.657 2.947-7.787-1.978 2.776-3.514-2.176-2.8-2.176-2.8s2.993 1.774-2.044 4.516c-5.328 2.929-.442 10.794 7.76 8.691z" fill="#263238" transform="translate(-117.743 -69.491)"/><path d="m373.462 129.712a5.11 5.11 0 0 1 -3.039 2.07c-1.629.349-2.255-1.108-1.642-2.571.547-1.319 2.051-3.092 3.607-2.789s1.912 1.998 1.074 3.29z" fill="#e58a7b" transform="translate(-125.553 -79.319)"/><path d="m336.913 217.94s-4.457 39.89-4.807 55.028c-.356 15.745 15.105 64.872 15.105 64.872l7.912-3.3s-9.231-44.887-7.912-60.349c1.4-16.859 7.174-56.228 7.174-56.228z" fill="#b0bec5" transform="translate(-113.137 -110.508)"/><path d="m355.256 233.725c-3.554 7.371-1.16 21.949.765 30.586.732-6.1 1.6-12.719 2.426-18.844-.079-9.415-.811-16.687-3.191-11.742z" opacity=".2" transform="translate(-120.402 -115.341)"/><path d="m361.516 390.83c.04 0 .936 2.519.936 2.519l-9.125 3.837-1.437-2.677z" fill="#b0bec5" transform="translate(-119.878 -169.406)"/><path d="m353.69 217.94s3.409 37.938 5.664 52.147c2.479 15.567 12.2 67.41 12.2 67.41h9.092s-5.446-50.584-6.475-66c-1.121-16.721-3.349-53.557-3.349-53.557z" fill="#b0bec5" transform="translate(-120.491 -110.508)"/><path d="m389.4 395.486c.04 0 .3 2.538.3 2.538h-10l-.7-2.914z" fill="#b0bec5" transform="translate(-129.114 -170.864)"/><path d="m384.843 334.889a.086.086 0 0 1 -.086-.073c-.053-.462-4.965-46.153-5.888-60-1-15.02-3.02-48.336-3.04-48.672a.079.079 0 0 1 .079-.086.086.086 0 0 1 .086.079c0 .336 2.037 33.626 3.04 48.672.923 13.846 5.835 59.5 5.881 60a.079.079 0 0 1 -.073.092z" opacity=".2" transform="translate(-128.034 -113.274)"/><path d="m361.132 124.915c0 .4-.251.725-.514.725s-.455-.323-.429-.725.251-.725.514-.725.455.33.429.725z" fill="#263238" transform="translate(-122.704 -78.571)"/><path d="m354.269 124.915c0 .4-.257.725-.514.725s-.455-.323-.435-.725.257-.725.521-.725.459.33.428.725z" fill="#263238" transform="translate(-120.365 -78.571)"/><path d="m355.83 125.6a15.363 15.363 0 0 1 -2.11 3.422 2.255 2.255 0 0 0 1.892.356z" fill="#df5753" transform="translate(-120.501 -79.051)"/><path d="m357.042 133.1a.112.112 0 0 1 -.112-.119.125.125 0 0 1 .125-.119 3.376 3.376 0 0 0 2.637-1.24.125.125 0 0 1 .165 0 .119.119 0 0 1 0 .165 3.6 3.6 0 0 1 -2.815 1.313z" fill="#263238" transform="translate(-121.595 -81.093)"/><path d="m361.7 123.051a.224.224 0 0 1 -.2 0 1.872 1.872 0 0 0 -1.681-.178.224.224 0 0 1 -.3-.105.244.244 0 0 1 .125-.316 2.314 2.314 0 0 1 2.13.2.231.231 0 0 1 .059.323.264.264 0 0 1 -.133.076z" fill="#263238" transform="translate(-122.468 -77.92)"/><path d="m352.026 120.826a.191.191 0 0 1 -.092-.053.231.231 0 0 1 0-.33 2.466 2.466 0 0 1 2.031-.818.224.224 0 0 1 .185.27.257.257 0 0 1 -.277.2 1.978 1.978 0 0 0 -1.6.659.244.244 0 0 1 -.247.072z" fill="#263238" transform="translate(-119.869 -77.013)"/><path d="m373.745 161.376-6.857-1.826s-6.725 16.556-9.105 17.631a149.224 149.224 0 0 0 -14.894 9.013 6.9 6.9 0 0 0 .4 3.607c5.934-1.081 17.294-5.453 19.668-7.675 5.408-5.071 10.788-20.75 10.788-20.75z" fill="#e58a7b" transform="translate(-116.784 -90.617)"/><path d="m381.871 409.25a1.443 1.443 0 0 1 -.943-.257.659.659 0 0 1 -.2-.62.389.389 0 0 1 .224-.33c.554-.284 2.1.7 2.281.811a.106.106 0 0 1 .046.119.139.139 0 0 1 -.092.1 6.251 6.251 0 0 1 -1.312.178zm-.659-1.029a.349.349 0 0 0 -.152 0 .145.145 0 0 0 -.079.138.448.448 0 0 0 .132.429 2.358 2.358 0 0 0 1.754.092 4.372 4.372 0 0 0 -1.675-.659z" fill="#b0bec5" transform="translate(-129.696 -175.253)"/><path d="m383.711 408.476a.086.086 0 0 1 -.053 0c-.494-.277-1.424-1.365-1.286-1.919a.4.4 0 0 1 .389-.31.619.619 0 0 1 .494.152c.547.468.58 1.905.58 1.978a.1.1 0 0 1 -.059.105.112.112 0 0 1 -.065-.006zm-.884-2.011h-.046c-.152 0-.171.086-.178.119-.079.323.508 1.147 1 1.536a2.729 2.729 0 0 0 -.495-1.556.4.4 0 0 0 -.277-.1z" fill="#b0bec5" transform="translate(-130.258 -174.657)"/><path d="m355.108 408.1a1.893 1.893 0 0 1 -1.246 0 .62.62 0 0 1 -.323-.5.389.389 0 0 1 .138-.349c.527-.475 2.683 0 2.927.092a.105.105 0 0 1 .079.105.125.125 0 0 1 -.073.119 9.651 9.651 0 0 1 -1.5.534zm-1.075-.785a.455.455 0 0 0 -.2.1.138.138 0 0 0 -.053.138.415.415 0 0 0 .211.336 3.283 3.283 0 0 0 2.209-.4 6.487 6.487 0 0 0 -2.163-.171z" fill="#b0bec5" transform="translate(-120.439 -174.93)"/><path d="m357.1 406.851h-.053c-.659-.119-1.978-.877-2.018-1.444 0-.132.059-.316.376-.422a.844.844 0 0 1 .659.04c.712.35 1.088 1.615 1.108 1.675a.175.175 0 0 1 -.073.152zm-1.563-1.668h-.066c-.2.073-.2.158-.2.185 0 .343.956.969 1.622 1.18a2.492 2.492 0 0 0 -.923-1.319.606.606 0 0 0 -.429-.046z" fill="#b0bec5" transform="translate(-120.948 -174.212)"/><path d="m339.815 199.37-6.877 3.165-.8 1.978 2.538 1.708s4.747-.514 6.1-3.567z" fill="#e58a7b" transform="translate(-113.15 -104.182)"/><path d="m343.559 203.249a9.27 9.27 0 0 0 -1.279-3.732l1.088-.818a10.608 10.608 0 0 1 1.53 4.319z" fill="#263238" transform="translate(-116.604 -103.954)"/><path d="m344.744 200.457a1.319 1.319 0 1 1 -1.609-.514 1.2 1.2 0 0 1 1.609.514z" fill="#263238" transform="translate(-116.615 -104.332)"/><path d="m326.3 206.728.916.923 6.171-2.637-2.44-.844z" fill="#e58a7b" transform="translate(-111.16 -105.817)"/><path d="m361.516 390.83c.04 0 .936 2.519.936 2.519l-9.125 3.837-1.437-2.677z" opacity=".2" transform="translate(-119.878 -169.406)"/><path d="m389.4 395.486c.04 0 .3 2.538.3 2.538h-10l-.7-2.914z" opacity=".2" transform="translate(-129.114 -170.864)"/><path d="m384.656 157.016c1.813 5.848-5.275 13.846-5.275 13.846l-9.791-4a101.578 101.578 0 0 1 4.009-9.936c3.006-6.476 9.224-5.811 11.057.09z" fill="#b0bec5" transform="translate(-125.908 -88.156)"/><path d="m384.656 157.016c1.813 5.848-5.275 13.846-5.275 13.846l-9.791-4a101.578 101.578 0 0 1 4.009-9.936c3.006-6.476 9.224-5.811 11.057.09z" opacity=".2" transform="translate(-125.908 -88.156)"/><path d="m157.244 10.266h4.213v.679h-4.213z" fill="#b0bec5"/><path d="m0 0h11.327v.679h-11.327z" fill="#b0bec5" transform="matrix(.04501428 -.99898634 .99898634 .04501428 215.485 48.459)"/><path d="m281.671 75.19h-77.8l-7.241 162.01h77.8z" fill="#b0bec5" transform="translate(-66.986 -61.878)"/><path d="m278.151 78.57h-77.8l-7.241 162.011h77.8z" fill="#fafafa" opacity=".56" transform="translate(-65.787 -63.029)"/><path d="m274.627 81.94h-77.8l-7.247 162.011h77.8z" fill="#b0bec5" opacity=".07" transform="translate(-64.584 -64.177)"/><path d="m270.542 189.11h-66.408l-.554 12.4h66.408z" fill="#fff" transform="translate(-69.353 -100.687)"/><path d="m241.022 175.39h-36.122l-.244 5.545h36.118z" fill="#b0bec5" transform="translate(-69.721 -96.013)"/><path d="m268.272 239.85h-66.408l-.554 12.4h66.408z" fill="#fff" transform="translate(-68.58 -117.972)"/><path d="m260.982 284.04h-44.656l-.666 14.855h44.657z" fill="#b0bec5" opacity=".47" transform="translate(-73.469 -133.026)"/><path d="m256.763 302.32h-44.656a.119.119 0 0 1 -.059 0 .092.092 0 0 1 0-.059l.659-14.861a.073.073 0 0 1 .079-.073h44.657a.059.059 0 0 1 .053 0 .053.053 0 0 1 0 .053l-.646 14.894a.086.086 0 0 1 -.087.046zm-44.577-.158h44.5l.659-14.7h-44.5z" fill="#fff" transform="translate(-72.236 -134.144)"/><path d="m232.449 226.13h-29.815l-.244 5.552h29.81z" fill="#b0bec5" transform="translate(-68.948 -113.298)"/><path d="m265.645 119.652a17.492 17.492 0 0 1 -3.672 9.923 17.723 17.723 0 0 1 -13.973 6.969 16.028 16.028 0 0 1 -16.127-16.892 17.8 17.8 0 0 1 17.637-16.892 16.015 16.015 0 0 1 16.14 16.892z" fill="#fff" transform="translate(-78.982 -71.27)"/><path d="m280.878 105.8a4.616 4.616 0 0 1 -.976 2.637 4.727 4.727 0 0 1 -3.719 1.853 4.273 4.273 0 0 1 -3.547-1.853 4.358 4.358 0 0 1 -.738-2.637 4.734 4.734 0 0 1 4.688-4.483 4.259 4.259 0 0 1 4.292 4.483z" fill="#b0bec5" transform="translate(-92.625 -70.779)"/><path d="m213.214 197.488a2.1 2.1 0 0 1 -2.077 1.978 1.879 1.879 0 0 1 -1.9-1.978 2.09 2.09 0 0 1 2.077-1.978 1.886 1.886 0 0 1 1.9 1.978z" fill="#263238" transform="translate(-71.28 -102.867)"/><path d="m226.7 197.488a2.1 2.1 0 0 1 -2.077 1.978 1.879 1.879 0 0 1 -1.892-1.978 2.09 2.09 0 0 1 2.07-1.978 1.879 1.879 0 0 1 1.9 1.978z" fill="#263238" transform="translate(-75.876 -102.867)"/><path d="m240.185 197.488a2.1 2.1 0 0 1 -2.077 1.978 1.886 1.886 0 0 1 -1.9-1.978 2.1 2.1 0 0 1 2.077-1.978 1.879 1.879 0 0 1 1.9 1.978z" fill="#263238" transform="translate(-80.468 -102.867)"/><path d="m210.945 248.228a2.1 2.1 0 0 1 -2.077 1.978 1.886 1.886 0 0 1 -1.9-1.978 2.1 2.1 0 0 1 2.077-1.978 1.886 1.886 0 0 1 1.9 1.978z" fill="#263238" transform="translate(-70.507 -120.153)"/><path d="m224.428 248.228a2.1 2.1 0 0 1 -2.07 1.978 1.879 1.879 0 0 1 -1.9-1.978 2.1 2.1 0 0 1 2.077-1.978 1.879 1.879 0 0 1 1.892 1.978z" fill="#263238" transform="translate(-75.102 -120.153)"/><path d="m237.945 248.228a2.1 2.1 0 0 1 -2.077 1.978 1.892 1.892 0 0 1 -1.9-1.978 2.1 2.1 0 0 1 2.077-1.978 1.879 1.879 0 0 1 1.9 1.978z" fill="#263238" transform="translate(-79.705 -120.153)"/><path d="m251.4 248.228a2.1 2.1 0 0 1 -2.077 1.978 1.892 1.892 0 0 1 -1.9-1.978 2.1 2.1 0 0 1 2.077-1.978 1.886 1.886 0 0 1 1.9 1.978z" fill="#263238" transform="translate(-84.291 -120.153)"/><path d="m264.944 248.228a2.1 2.1 0 0 1 -2.077 1.978 1.879 1.879 0 0 1 -1.9-1.978 2.1 2.1 0 0 1 2.077-1.978 1.886 1.886 0 0 1 1.9 1.978z" fill="#263238" transform="translate(-88.903 -120.153)"/><ellipse cx="6.989" cy="6.679" fill="#b0bec5" rx="6.989" ry="6.679" transform="matrix(.71496096 -.69916437 .69916437 .71496096 160.355 42.839)"/><path d="m263.423 140.7a17.723 17.723 0 0 1 -13.978 6.969 16 16 0 0 1 -13.345-6.969 19.831 19.831 0 0 1 13.892-5.275c5.618.005 10.508 2.088 13.431 5.275z" fill="#b0bec5" transform="translate(-80.432 -82.4)"/><ellipse cx="6.989" cy="6.679" fill="#fff" opacity=".1" rx="6.989" ry="6.679" transform="matrix(.71496096 -.69916437 .69916437 .71496096 160.355 42.839)"/><path d="m263.423 140.7a17.723 17.723 0 0 1 -13.978 6.969 16 16 0 0 1 -13.345-6.969 19.831 19.831 0 0 1 13.892-5.275c5.618.005 10.508 2.088 13.431 5.275z" fill="#fff" opacity=".1" transform="translate(-80.432 -82.4)"/><path d="m124.864 211.217c-.626 1.371-1.286 2.881-1.859 4.345s-1.16 2.974-1.668 4.477a56.863 56.863 0 0 0 -2.36 9.1l-.145.969a1.418 1.418 0 0 0 .046.495 5.143 5.143 0 0 0 .725 1.53 19.3 19.3 0 0 0 2.927 3.3 44.41 44.41 0 0 0 3.64 3.04c1.266.976 2.6 1.925 3.91 2.822l-1.233 2.314a46.726 46.726 0 0 1 -8.868-5.083 21.355 21.355 0 0 1 -3.956-3.745 9.4 9.4 0 0 1 -1.576-2.815 6.394 6.394 0 0 1 -.316-1.978v-.824l.066-.659a51.573 51.573 0 0 1 2.156-10.114c.514-1.622 1.062-3.237 1.688-4.813s1.273-3.119 2.07-4.721z" fill="#e58a7b" transform="translate(-38.88 -107.412)"/><path d="m136.276 256.21 4.661-2.36-1.207 5.116s-3.2.9-4.681-.659z" fill="#e58a7b" transform="translate(-46.007 -122.742)"/><path d="m147.622 254.687-1.24 4.233-4.233.046 1.207-5.116z" fill="#e58a7b" transform="translate(-48.426 -122.742)"/><path d="m160.423 175a13.187 13.187 0 0 0 1.035 2.637 1.075 1.075 0 0 1 -1.048.336z" fill="#df5753" transform="translate(-54.647 -95.881)"/><ellipse cx="105.638" cy="78.401" fill="#263238" rx=".494" ry=".758"/><path d="m160 172.654 1-.284s-.486.778-1 .284z" fill="#263238" transform="translate(-54.507 -94.985)"/><path d="m140.409 182.34c.6 3.066 1.2 8.69-.949 10.741 0 0 .844 3.112 6.547 3.112 6.27 0 2.993-3.112 2.993-3.112-3.422-.818-3.336-3.356-2.736-5.743z" fill="#e58a7b" transform="translate(-47.51 -98.381)"/><path d="m138.361 167.873c.316 5.123.343 7.3 2.927 9.93 3.9 3.956 10.121 2.453 11.34-2.637 1.1-4.615.4-12.211-4.615-14.248a7 7 0 0 0 -9.653 6.956z" fill="#e58a7b" transform="translate(-47.13 -90.903)"/><path d="m136.34 162.875c-2.571.936-6 .237-4.655 8.169 1.424 8.4-.765 11.163-.765 11.163a52.352 52.352 0 0 0 19.707-.125s-3.04-5.314-2.189-9.231c1.088-4.945.231-6.771.231-6.771s-8.716-4.523-12.329-3.205z" fill="#263238" transform="translate(-44.6 -91.668)"/><path d="m155.64 175.045a5.149 5.149 0 0 0 .8 2.749c.7 1.068 1.523.659 1.727-.475.185-1 .046-2.756-.844-3.442s-1.67-.012-1.683 1.168z" fill="#e58a7b" transform="translate(-53.022 -95.404)"/><path d="m135.7 162.106c-.738-2.077 2.782-5.275 10.233-3.956s7.774 7.523 7.774 7.523l-1.5-1.793.066 1.886-7.655 1.47z" fill="#263238" transform="translate(-46.196 -90.035)"/><path d="m136.7 198.02a1.167 1.167 0 0 1 .956-1.319c2.321-.382 7.6-1.16 10.246-.791 1.978.277 2.492 1.424 2.578 2.367a1.16 1.16 0 0 1 -1.22 1.253l-11.459-.514a1.174 1.174 0 0 1 -1.101-.996z" fill="#b0bec5" transform="translate(-46.566 -102.971)"/><path d="m136.7 198.02a1.167 1.167 0 0 1 .956-1.319c2.321-.382 7.6-1.16 10.246-.791 1.978.277 2.492 1.424 2.578 2.367a1.16 1.16 0 0 1 -1.22 1.253l-11.459-.514a1.174 1.174 0 0 1 -1.101-.996z" opacity=".6" transform="translate(-46.566 -102.971)"/><path d="m146.76 368.879 4.253 2.954 7.114-9.646-4.253-2.947z" fill="#e58a7b" transform="translate(-49.996 -158.645)"/><path d="m131.72 368.3 4.49 2.558 6.3-10.2-4.49-2.558z" fill="#e58a7b" transform="translate(-44.873 -158.257)"/><path d="m159.9 362.187-3.666 4.971-4.253-2.947 3.666-4.971z" fill="#cf6f64" transform="translate(-51.775 -158.645)"/><path d="m139.584 358.1 4.5 2.565-3.244 5.255-4.5-2.565z" fill="#cf6f64" transform="translate(-46.447 -158.257)"/><path d="m143.624 248s16.6 20.921 13.483 40.931c-2.512 16.16-17.083 38.043-17.083 38.043l-6.85-3.4a223.689 223.689 0 0 0 12.329-29.96 22.147 22.147 0 0 0 -2.637-19.187c-8.413-12.283-21.89-4.971-12.824-26.426z" fill="#b0bec5" transform="translate(-43.274 -120.749)"/><path d="m143.624 248s16.6 20.921 13.483 40.931c-2.512 16.16-17.083 38.043-17.083 38.043l-6.85-3.4a223.689 223.689 0 0 0 12.329-29.96 22.147 22.147 0 0 0 -2.637-19.187c-8.413-12.283-21.89-4.971-12.824-26.426z" opacity=".6" transform="translate(-43.274 -120.749)"/><path d="m163.3 267.14-2.413-2.4c0 .191 4.675 29.05 5.987 37.16a49.138 49.138 0 0 0 1.774-7.253c1.545-9.817-1.679-19.847-5.348-27.507z" opacity=".4" transform="translate(-54.81 -126.452)"/><path d="m153.411 248s19.991 26.294 20.558 42.059c.468 13.187-21.758 38.736-21.758 38.736l-6.461-4.18s13.009-18.145 16.285-32.967c-1.266-14.69-28.035-43.648-28.035-43.648z" fill="#b0bec5" transform="translate(-45.649 -120.749)"/><path d="m153.411 248s19.991 26.294 20.558 42.059c.468 13.187-21.758 38.736-21.758 38.736l-6.461-4.18s13.009-18.145 16.285-32.967c-1.266-14.69-28.035-43.648-28.035-43.648z" opacity=".6" transform="translate(-45.649 -120.749)"/><path d="m123.767 200.363c-2.136.508-4.187 8.275-4.187 8.275l8.354 5.578s2.782-6.145 1.807-8.835c-1.009-2.803-3.291-5.657-5.974-5.018z" fill="#b0bec5" transform="translate(-40.737 -104.49)"/><path d="m128.11 208-.58 6.771 3.105 2.083a27.824 27.824 0 0 0 1.892-6.026z" opacity=".2" transform="translate(-43.445 -107.123)"/><path d="m153.134 199.867s2.466.864-2.473 31.219h-21.006c.356-8.571.363-13.846-3.725-31.371a62.166 62.166 0 0 1 8.921-1.174 66.7 66.7 0 0 1 9.541 0c4.1.377 8.742 1.326 8.742 1.326z" fill="#b0bec5" transform="translate(-42.9 -103.842)"/><path d="m167.848 206.9c.475 1.319.976 2.736 1.5 4.1s1.029 2.769 1.563 4.154l1.615 4.141.409 1.035.211.514.1.257v.04a1.358 1.358 0 0 0 -.462-.409 1.879 1.879 0 0 0 -.857-.257 1.721 1.721 0 0 0 -.732.138c-.3.138-.3.2-.3.191a.8.8 0 0 0 .145-.152 8.983 8.983 0 0 0 .943-1.536c.31-.607.607-1.253.9-1.905.58-1.319 1.114-2.683 1.648-4.061s1.042-2.769 1.536-4.174l1.5-4.207 2.538.659c-.5 3.007-1.147 5.934-1.925 8.914-.376 1.483-.818 2.954-1.319 4.437-.251.745-.527 1.483-.844 2.242a14.21 14.21 0 0 1 -1.213 2.36 6.144 6.144 0 0 1 -.58.712 3.573 3.573 0 0 1 -1.2.851 2.954 2.954 0 0 1 -1.279.237 2.9 2.9 0 0 1 -1.391-.415 3.547 3.547 0 0 1 -1.2-1.246c-.1-.171-.185-.343-.244-.468l-.125-.251-.251-.514-.5-1.022c-.659-1.371-1.319-2.756-1.892-4.147s-1.18-2.8-1.747-4.22-1.075-2.835-1.556-4.365z" fill="#e58a7b" transform="translate(-55.478 -106.022)"/><path d="m164.012 200.538c2.525.6 5.367 8.064 5.367 8.064l-7.51 6.389s-4.859-8.136-3.877-10.82c1.022-2.796 2.723-4.418 6.02-3.633z" fill="#b0bec5" transform="translate(-53.778 -104.513)"/><path d="m186.367 200.052 2.637-2.2 1.833 2.855-1.352 2.38s-2.149 1.978-4.048.969a3.409 3.409 0 0 1 .93-4z" fill="#e58a7b" transform="translate(-63.072 -103.665)"/><path d="m195.75 197.857-.2.719-4.174.7-.409-1.424z" fill="#e58a7b" transform="translate(-65.057 -103.665)"/><path d="m158.51 367.323-7.53-4.866 1.352-2.347 8.459 5.2z" fill="#b0bec5" transform="translate(-51.434 -158.942)"/><path d="m142 376.293a4.537 4.537 0 0 1 -1.859-.659.119.119 0 0 1 0-.224c.2-.066 1.978-.613 2.492-.191a.422.422 0 0 1 .145.4.7.7 0 0 1 -.376.567.863.863 0 0 1 -.402.107zm-1.483-.725c.824.422 1.483.574 1.8.415a.461.461 0 0 0 .237-.382c0-.105 0-.152-.059-.178-.277-.224-1.266-.053-1.991.145z" fill="#263238" transform="translate(-47.714 -164.034)"/><path d="m140.195 374.951a.132.132 0 0 1 -.092-.04.125.125 0 0 1 0-.119c0-.059.429-1.49 1.1-1.813a.66.66 0 0 1 .547 0 .435.435 0 0 1 .3.442c-.046.593-1.253 1.411-1.807 1.549zm1.279-1.8a.448.448 0 0 0 -.185.046c-.409.2-.745.969-.91 1.437.58-.244 1.378-.89 1.4-1.253 0-.059 0-.132-.152-.2a.487.487 0 0 0 -.158-.053z" fill="#263238" transform="translate(-47.723 -163.306)"/><path d="m156.046 380.347c-.745 0-1.78-.956-2.347-1.543a.119.119 0 0 1 0-.138.138.138 0 0 1 .125-.066c.264 0 2.552.343 2.875.989a.376.376 0 0 1 0 .382.659.659 0 0 1 -.521.369zm-1.912-1.451c.831.8 1.563 1.253 1.978 1.2a.448.448 0 0 0 .343-.244.138.138 0 0 0 0-.152c-.172-.355-1.392-.658-2.321-.8z" fill="#263238" transform="translate(-52.353 -165.24)"/><path d="m154.2 378.263a2.156 2.156 0 0 1 -.442-.033.119.119 0 0 1 -.092-.073.139.139 0 0 1 0-.125c.04-.046.93-1.121 1.774-1.193a.916.916 0 0 1 .659.211c.257.224.244.422.178.547-.169.448-1.309.666-2.077.666zm-.171-.244c.738.04 1.919-.2 2.07-.527 0 0 .053-.105-.119-.251a.66.66 0 0 0 -.5-.158 2.888 2.888 0 0 0 -1.451.943z" fill="#263238" transform="translate(-52.343 -164.64)"/><path d="m136.37 374.093-5.591-1.582a.409.409 0 0 0 -.494.231l-1.886 4.24a.831.831 0 0 0 .547 1.114c1.978.514 2.927.659 5.387 1.365 1.516.422 3.679 1.207 5.769 1.8s2.789-1.444 1.978-1.879c-3.666-1.938-3.956-3.3-4.958-4.747a1.358 1.358 0 0 0 -.752-.541z" fill="#b0bec5" transform="translate(-43.72 -163.16)"/><path d="m149.453 376-4.774-3.3a.409.409 0 0 0 -.541.053l-3.165 3.4a.824.824 0 0 0 .158 1.226c1.681 1.127 2.552 1.582 4.655 3.04 1.319.9 3.87 2.888 5.65 4.127s3.105-.462 2.473-1.134c-2.835-3.026-3.455-4.925-3.923-6.646a1.365 1.365 0 0 0 -.534-.771z" fill="#b0bec5" transform="translate(-47.956 -163.204)"/><path d="m143.624 365.023-8.6-4.279.89-2.334 9.191 4.51z" fill="#b0bec5" transform="translate(-45.997 -158.362)"/><path d="m130.717 246.048-.725 1.9c-.073.145.1.3.343.3h21.811c.191 0 .349-.092.363-.211l.185-1.886c0-.125-.152-.237-.356-.237h-21.279a.4.4 0 0 0 -.343.138z" fill="#b0bec5" transform="translate(-44.278 -120.036)"/><path d="m130.717 246.048-.725 1.9c-.073.145.1.3.343.3h21.811c.191 0 .349-.092.363-.211l.185-1.886c0-.125-.152-.237-.356-.237h-21.279a.4.4 0 0 0 -.343.138z" fill="#fff" opacity=".4" transform="translate(-44.278 -120.036)"/><path d="m135.915 248.333h-.574c-.112 0-.2-.059-.191-.132l.27-2.446c0-.066.106-.125.218-.125h.574c.112 0 .2.059.191.125l-.27 2.446c-.007.073-.106.132-.218.132z" fill="#b0bec5" transform="translate(-46.041 -119.942)"/><path d="m156.318 248.333h-.567c-.112 0-.2-.059-.191-.132l.264-2.446c0-.066.112-.125.224-.125h.567c.112 0 .2.059.191.125l-.264 2.446a.231.231 0 0 1 -.224.132z" fill="#b0bec5" transform="translate(-52.994 -119.942)"/><ellipse cx="89.372" cy="238.77" fill="#f5f5f5" rx="17.663" ry="1.279"/><path d="m140.415 370.069a43.9 43.9 0 0 1 -8.69-3.3c-.059-.04-.125-.059-.185-.092v-14.146h6.323a1.886 1.886 0 0 0 0-3.765h-6.29v-64.5h-3.8v64.5h-6.283a1.886 1.886 0 1 0 0 3.765h6.283v14.129c-.059 0-.119.053-.178.092a42.371 42.371 0 0 1 -8.7 3.3.923.923 0 0 0 .257 1.807h21a.923.923 0 0 0 .257-1.787z" fill="#e0e0e0" transform="translate(-40.282 -133.105)"/><rect fill="#b0bec5" height="13.8" rx="5.18" width="30.277" x="74.241" y="144.598"/><path d="m117.45 295.25v1.2c0 .989 1.075 1.793 2.393 1.793h19.121c1.319 0 2.393-.8 2.393-1.793v-1.2z" fill="#b0bec5" transform="translate(-40.011 -136.846)"/><path d="m117.45 295.25v1.2c0 .989 1.075 1.793 2.393 1.793h19.121c1.319 0 2.393-.8 2.393-1.793v-1.2z" fill="#fff" opacity=".3" transform="translate(-40.011 -136.846)"/></svg>