<svg height="39.019" viewBox="0 0 39.019 39.019" width="39.019" xmlns="http://www.w3.org/2000/svg"><path d="m22.51 3a19.51 19.51 0 1 0 19.51 19.51 19.511 19.511 0 0 0 -19.51-19.51zm-11.381 31.12c1.9-5.69 7.588-3.469 8.535-6.552v-2.055a5.425 5.425 0 0 1 -1.775-3.032c-.337-.029-.863-.363-1.019-1.681a1.247 1.247 0 0 1 .449-1.231 6.537 6.537 0 0 1 -.5-2.274c0-3.369 1.67-6.165 5.692-6.165a2.993 2.993 0 0 1 2.845 1.54c1.941 0 2.845 2.128 2.845 4.624a5.8 5.8 0 0 1 -.5 2.274 1.244 1.244 0 0 1 .45 1.231c-.156 1.319-.683 1.652-1.019 1.681a5.416 5.416 0 0 1 -1.775 3.032v2.055c.948 3.084 6.638.863 8.535 6.554a16.256 16.256 0 0 1 -22.761 0z" fill="#fff" transform="translate(-3 -3)"/></svg>