<svg xmlns="http://www.w3.org/2000/svg" width="51.45" height="11.637" viewBox="0 0 51.45 11.637">
  <g id="Layer_2" data-name="Layer 2" transform="translate(-17 -31.038)">
    <g id="Layer_1" data-name="Layer 1" transform="translate(17 31.038)">
      <path id="Path_629" data-name="Path 629" d="M380.657.23h-5.8a1.16,1.16,0,0,0-1.16,1.16v9.276a1.16,1.16,0,1,0,2.319,0V7.187H379.5a1.16,1.16,0,0,0,0-2.319h-3.479V2.549h4.638a1.16,1.16,0,1,0,0-2.319Z" transform="translate(-330.367 -0.209)" fill="#09f"/>
      <path id="Path_630" data-name="Path 630" d="M300.657,9.506h-4.638V7.187H299.5a1.16,1.16,0,0,0,0-2.319h-3.479V2.549h4.638a1.16,1.16,0,1,0,0-2.319h-5.8a1.16,1.16,0,0,0-1.16,1.16v9.276a1.16,1.16,0,0,0,1.16,1.16h5.8a1.16,1.16,0,1,0,0-2.319Z" transform="translate(-259.644 -0.209)" fill="#09f"/>
      <path id="Path_631" data-name="Path 631" d="M106.957,9.506h-4.638V7.187H105.8a1.16,1.16,0,0,0,0-2.319h-3.479V2.549h4.638a1.16,1.16,0,0,0,0-2.319h-5.8A1.16,1.16,0,0,0,100,1.39v9.276a1.16,1.16,0,0,0,1.16,1.16h5.8a1.16,1.16,0,0,0,0-2.319Z" transform="translate(-88.404 -0.209)" fill="#09f"/>
      <path id="Path_632" data-name="Path 632" d="M8.117,1.391A5.757,5.757,0,0,0,6.957.714a5.439,5.439,0,0,0-.7-.252A5.778,5.778,0,0,0,4.638.23H1.16A1.16,1.16,0,0,0,0,1.39v9.276a1.16,1.16,0,0,0,1.16,1.16H4.638a5.778,5.778,0,0,0,1.623-.232,5.44,5.44,0,0,0,.7-.252,5.8,5.8,0,0,0,1.16-9.951ZM4.638,9.508H2.319V2.55H4.638a3.479,3.479,0,0,1,0,6.957Z" transform="translate(0 -0.209)" fill="#09f"/>
      <path id="Path_633" data-name="Path 633" d="M186.689,1.731l-.023-.022-.023-.023-.022-.022-.023-.023c-.007-.008-.015-.015-.023-.023l-.022-.022-.023-.023-.022-.022-.023-.023L186.46,1.5l-.022-.022-.023-.023-.022-.022-.023-.023c-.007-.008-.015-.015-.023-.023l-.022-.022-.023-.023-.022-.022-.023-.023c-.007-.008-.015-.015-.023-.023l-.022-.027-.023-.023-.022-.022-.023-.023-.023-.023-.022-.022-.023-.023-.022-.023-.023-.022-.023-.023-.022-.022L185.961,1l-.023-.023-.022-.022-.023-.023L185.87.909l-.023-.023c-.007-.008-.015-.015-.023-.023L185.8.841l-.023-.023L185.756.8l-.023-.023L185.71.749l-.017-.017-.023-.023-.022-.022-.023-.023L185.6.64l-.024-.022L185.553.6c-1.044-1.11-2.748.595-1.638,1.638l.022.023.023.023.023.022.022.023.023.022a.219.219,0,0,0,.023.023l.022.023.023.022.022.023.023.022a.219.219,0,0,0,.023.023l.022.023.023.022.022.023.023.022.023.023.022.023.023.022.022.023.023.023.023.022.022.023.023.022.022.023.023.023.023.022.022.023.023.022.022.023.023.023.023.022.022.023.023.022.023.023.022.023.023.022.022.023.023.022a.219.219,0,0,0,.023.023l.022.023.023.022.022.023.023.023.023.022.022.023.023.022.022.023.023.023.023.022.022.023C186.1,4.481,187.8,2.776,186.689,1.731Z" transform="translate(-162.27 -0.212)" fill="#e72"/>
      <path id="Path_634" data-name="Path 634" d="M256.677,71.737l-.012-.012a.054.054,0,0,1-.012-.012l-.012-.012-.012-.012-.012-.01-.035-.035-.012-.012-.01-.012-.012-.012a.054.054,0,0,1-.012-.012l-.023-.023-.012-.01-.035-.035-.012-.012-.01-.012-.012-.012a.053.053,0,0,1-.012-.012l-.012-.012-.012-.012-.012-.01-.035-.035-.012-.012-.01-.012-.012-.012-.023-.023-.012-.012-.012-.01-.023-.023a.055.055,0,0,0-.012-.012l-.012-.012-.01-.012-.012-.012-.023-.023-.012-.01-.012-.012-.012-.012-.023-.023-.012-.012-.01-.012-.012-.012-.023-.023-.012-.012-.012-.01-.012-.012-.023-.023L256,71.059l-.01-.012-.012-.012-.023-.023L255.942,71l-.012-.01-.012-.012-.023-.023-.012-.012-.01-.012-.012-.012-.023-.023-.012-.012-.012-.01-.012-.012-.023-.023-.012-.012-.01-.012-.012-.012-.023-.023-.012-.012-.012-.01-.012-.012-.023-.023a.054.054,0,0,0-.012-.012l-.01-.012-.012-.012-.023-.023-.012-.012-.012-.01-.012-.012-.023-.023a.055.055,0,0,0-.012-.012l-.01-.012c-1.044-1.1-2.735.595-1.64,1.64l.012.012.012.012.01.01.012.012.012.012.012.012.012.012.012.012.012.012.012.012.012.012.012.012.01.01.012.012.012.012.012.012.012.012.012.012.012.012.012.012.012.012.012.012.01.01.012.012.012.012.012.012.012.012.012.012.012.012.012.012.012.012.012.012.012.01.01.012.012.012.012.012.012.012.012.012.012.012.012.012.012.012.012.012.012.012.01.01.012.012.012.012.012.012.012.012.012.012.012.012.012.012.012.012.012.012.01.01.012.012.012.012.012.012.012.012.012.012.012.012.012.012.012.012.012.012.01.01.012.012.012.012.012.012.012.012.012.012.012.012.012.012.012.012.012.012.01.01.012.012.012.012.012.012.012.012.012.012.012.012.012.012.012.012.012.012.01.01.012.012.012.012.012.012.012.012.012.012.012.012.012.012.012.012.012.012.01.01.012.012.012.012.012.012.012.012.012.012.012.012C256.082,74.472,257.771,72.781,256.677,71.737Z" transform="translate(-224.135 -62.095)" fill="#e72"/>
      <path id="Path_635" data-name="Path 635" d="M189.767,1.2a1.166,1.166,0,0,0-2.006-.79c-.022.013-1.241,1.234-1.263,1.253s-.038.038-.057.058-.039.037-.058.057l-.057.058c-.019.02-.039.037-.058.057l-.057.058c-.019.02-.039.037-.058.057l-.057.058c-.019.02-.039.037-.058.057l-.057.058c-.019.02-.039.037-.058.057l-.057.058c-.019.02-.039.037-.058.057l-.057.058c-.019.02-.039.037-.058.057l-.057.058c-.019.02-.039.037-.058.057l-.057.058c-.019.02-.039.037-.058.057l-.057.058c-.019.02-.039.037-.058.057l-.057.058c-.019.02-.039.037-.058.057l-.057.058c-.019.02-.039.037-.058.057l-.057.058c-.019.02-.039.037-.058.057l-.057.058c-.019.02-.039.037-.058.057l-.057.058c-.019.02-.039.037-.058.057l-.057.058c-.019.02-.039.037-.058.057l-.057.058c-.019.02-.039.037-.058.057l-.057.058c-.019.02-.039.037-.058.057l-.057.058c-.019.02-.039.037-.058.057l-.057.058c-.019.02-.039.037-.058.057l-.057.058c-.019.02-.039.037-.058.057l-.057.058c-.019.02-.039.037-.058.057l-.057.058c-.019.02-.039.037-.058.058s-.038.037-.057.057-.039.037-.058.058-.038.037-.057.057-.039.037-.058.058-.038.037-.057.057-.039.037-.058.058-.038.037-.057.057-.039.037-.058.058-.038.037-.057.057-.039.037-.058.058-.038.037-.057.057-.039.037-.058.058-.038.037-.057.057-.039.037-.058.058-.038.037-.057.057-.039.037-.058.058-.038.037-.057.057l-.058.058-.057.057-.058.058-.057.057c-.02.019-.039.038-.058.058s-.038.037-.057.057l-.058.058-.057.057-.058.058-.057.057c-.02.019-.039.038-.058.058s-.038.037-.057.057-.039.038-.058.058l-.057.057-.058.058-.057.057c-.02.019-.039.038-.058.058s-.038.037-.057.057-.039.038-.058.058-.038.037-.057.057-.039.038-.058.058l-.057.057c-.021.019-.039.038-.058.058s-.038.037-.057.057-.039.038-.058.058-.039.037-.057.057-.039.038-.058.058-.039.037-.057.057-.039.038-.058.058-.039.037-.057.057-.039.038-.058.058-.039.037-.057.057-.039.038-.058.058-.039.037-.057.057-.039.038-.058.058-.449.446-.464.464C179.257,8.8,181,10.549,182.047,9.4c.02-.019.449-.446.464-.464s.038-.038.057-.058.039-.037.058-.057l.057-.058c.019-.02.039-.037.058-.057l.057-.058c.019-.02.039-.037.058-.057l.057-.058c.019-.02.039-.037.058-.057l.057-.058c.019-.02.039-.037.058-.057l.057-.058c.019-.02.039-.037.058-.057l.057-.058c.019-.02.039-.037.058-.057s.039-.038.057-.058.039-.037.058-.057.039-.038.057-.058.039-.037.058-.057.039-.038.057-.058.039-.037.058-.057.039-.038.057-.058a.682.682,0,0,0,.058-.058.657.657,0,0,0,.057-.057.684.684,0,0,0,.058-.058c.02-.017.039-.037.058-.057s.038-.037.057-.058.039-.037.058-.057.038-.037.057-.058.039-.037.058-.057.038-.037.057-.058.039-.037.058-.057.038-.037.057-.058.039-.037.058-.057.038-.037.057-.058.039-.037.058-.057.038-.037.057-.058.039-.037.058-.057.038-.037.057-.058.039-.037.058-.057l.057-.058c.019-.02.039-.037.058-.057l.057-.058c.019-.02.039-.037.058-.057l.057-.058c.019-.02.039-.037.058-.057l.057-.058c.019-.02.039-.037.058-.057l.057-.058c.019-.02.039-.037.058-.057l.057-.058c.019-.02.039-.037.058-.057l.057-.058c.019-.02.039-.037.058-.057l.057-.058c.019-.02.039-.037.058-.057l.057-.058c.019-.02.039-.037.058-.057l.057-.058c.019-.02.039-.037.058-.057l.057-.058c.019-.02.039-.037.058-.057l.057-.058c.019-.02.039-.037.058-.057l.057-.058c.019-.02.039-.037.058-.057l.057-.058c.019-.02.039-.037.058-.057l.057-.058c.019-.02.039-.037.058-.057l.057-.058c.019-.02.039-.037.058-.057l.057-.058c.019-.02.039-.037.058-.057l.057-.058c.019-.02.039-.037.058-.057l.057-.058c.019-.02.039-.037.058-.057l.057-.058c.019-.02.039-.037.058-.057l.057-.058c.019-.02.039-.037.058-.057l.057-.058c.019-.02.039-.037.058-.057l.057-.058c.019-.02.039-.037.058-.057l.057-.058c.019-.02.039-.037.058-.057l.057-.058c.019-.02.039-.037.058-.057l.057-.058c.019-.02.039-.037.058-.057l.057-.058c.019-.02.039-.037.058-.057l.057-.058c.019-.02.039-.037.058-.057l.057-.058c.019-.02.039-.037.058-.057l.057-.058c.019-.02,1.242-1.24,1.26-1.259A1.16,1.16,0,0,0,189.767,1.2Z" transform="translate(-159.155 -0.051)" fill="#e72"/>
      <path id="Path_636" data-name="Path 636" d="M209.476,17.452a1.166,1.166,0,0,0-2.007-.79c-.02.019-1.241,1.24-1.259,1.259s-.039.038-.058.058-.038.037-.057.057-.039.038-.058.058l-.057.057c-.02.019-.039.038-.058.058s-.038.037-.057.057-.039.038-.058.058-.038.037-.057.057-.039.038-.058.058-.039.037-.057.057-.039.038-.058.058-.039.037-.057.057-.039.038-.058.058-.039.037-.057.057-.039.038-.058.058-.039.037-.057.057-.039.038-.058.058-.039.037-.057.057-.039.038-.058.058-.039.037-.057.057-.039.038-.058.058-.039.037-.057.057-.039.038-.058.058-.039.037-.058.057l-.057.058c-.019.02-.039.037-.058.057l-.057.058c-.019.02-.039.037-.058.057l-.057.058c-.019.02-.039.037-.058.057l-.057.058c-.019.02-.039.037-.058.057l-.057.058c-.019.02-.039.037-.058.057l-.057.058c-.019.02-.039.037-.058.057l-.057.058c-.019.02-.039.037-.058.057l-.057.058c-.019.02-.039.037-.058.057l-.057.058c-.019.02-.039.037-.058.057l-.057.058c-.019.02-.039.037-.058.057l-.057.058c-.019.02-.039.037-.058.057l-.057.058c-.019.02-.039.037-.058.057l-.057.058c-.019.02-.039.037-.058.057l-.057.058c-.019.02-.039.037-.058.057l-.057.058c-.019.02-.039.037-.058.057l-.057.058c-.019.02-.039.037-.058.057l-.057.058c-.019.02-.039.037-.058.057l-.057.058c-.019.02-.039.037-.058.057l-.057.058c-.019.02-.039.037-.058.057l-.057.058c-.019.02-.039.037-.058.057l-.057.058c-.019.02-.039.037-.058.057l-.057.058c-.019.02-.039.037-.058.057l-.057.058c-.019.02-.039.037-.058.057l-.057.058c-.019.02-.039.037-.058.057l-.057.058c-.019.02-.039.037-.058.057l-.057.058c-.019.02-.039.037-.058.058s-.038.037-.057.057-.039.037-.058.058-.038.037-.057.057-.039.037-.058.058-.038.037-.057.057-.039.037-.058.058-.038.037-.057.057-.039.037-.058.058-.038.037-.057.057-.039.037-.058.058-.038.037-.057.057-.039.037-.058.058-.038.037-.057.057-.039.037-.058.058-.038.037-.057.057l-.058.058-.057.057c-.02.019-.039.038-.058.058s-.038.037-.057.057-.039.038-.058.058l-.057.057-.058.058c-.02.019-.449.446-.464.464-1.153,1.044.594,2.791,1.637,1.637.02-.019.449-.446.464-.464a.658.658,0,0,0,.057-.057.684.684,0,0,0,.058-.058.655.655,0,0,0,.057-.057.686.686,0,0,0,.058-.058.659.659,0,0,0,.057-.057.684.684,0,0,0,.058-.058c.02-.019.039-.037.058-.057s.038-.037.057-.058.039-.037.058-.057.038-.037.057-.058.039-.037.058-.057.038-.037.057-.058.039-.037.058-.057l.057-.058c.019-.02.039-.037.058-.057l.057-.058c.019-.02.039-.037.058-.057l.057-.058c.019-.02.039-.037.058-.057l.057-.058c.019-.02.039-.037.058-.057l.057-.058c.019-.02.039-.037.058-.057l.057-.058c.019-.02.039-.037.058-.057l.057-.058c.019-.02.039-.037.058-.057l.057-.058c.019-.02.039-.037.058-.057l.057-.058c.019-.02.039-.037.058-.057l.057-.058c.019-.02.039-.037.058-.057l.057-.058c.019-.02.039-.037.058-.057l.057-.058c.019-.02.039-.037.058-.057L204.4,23c.019-.02.039-.037.058-.057l.057-.058c.019-.02.039-.037.058-.057l.057-.058c.019-.02.039-.037.058-.057l.057-.058c.019-.02.039-.037.058-.057l.057-.058c.019-.02.039-.037.058-.057l.057-.058c.019-.02.039-.037.058-.057l.057-.058c.019-.02.039-.037.058-.057l.057-.058c.019-.02.039-.037.058-.057l.057-.058c.019-.02.039-.037.058-.057l.057-.058c.019-.02.039-.037.058-.057l.057-.058c.019-.02.039-.037.058-.057l.057-.058c.019-.02.039-.037.058-.057l.057-.058c.019-.02.039-.037.058-.057l.057-.058c.019-.02.039-.037.058-.057l.057-.058c.019-.02.039-.037.058-.057l.057-.058c.019-.02.039-.037.058-.057l.057-.058c.019-.02.039-.037.058-.057l.057-.058c.019-.02.039-.037.058-.057l.057-.058c.019-.02.039-.037.058-.057l.057-.058c.019-.02.039-.037.058-.057l.057-.058c.019-.02.039-.037.058-.057l.057-.058c.019-.02.039-.037.058-.057l.057-.058c.019-.02.039-.037.058-.057l.057-.058c.019-.02.039-.037.058-.057l.057-.058c.019-.02.039-.037.058-.057l.057-.058c.019-.02.039-.037.058-.057l.057-.058c.019-.02.039-.037.058-.057l.057-.058c.019-.02.039-.037.058-.057l.057-.058a.681.681,0,0,0,.058-.058.654.654,0,0,0,.057-.057.682.682,0,0,0,.058-.058.657.657,0,0,0,.057-.057c.021-.019,1.242-1.24,1.26-1.259A1.16,1.16,0,0,0,209.476,17.452Z" transform="translate(-176.579 -14.414)" fill="#e72"/>
    </g>
  </g>
</svg>
