<svg xmlns="http://www.w3.org/2000/svg" width="382" height="284.636" viewBox="0 0 382 284.636">
  <g id="No_data-rafiki" data-name="No data-rafiki" transform="translate(0 -55)">
    <g id="freepik--background-complete--inject-1" transform="translate(0 55)">
      <rect id="Rectangle_4593" data-name="Rectangle 4593" width="382" height="0.191" transform="translate(0 250.134)" fill="#ebebeb"/>
      <rect id="Rectangle_4594" data-name="Rectangle 4594" width="25.304" height="0.191" transform="translate(318.42 262.426)" fill="#ebebeb"/>
      <rect id="Rectangle_4595" data-name="Rectangle 4595" width="6.639" height="0.191" transform="translate(246.413 264.504)" fill="#ebebeb"/>
      <rect id="Rectangle_4596" data-name="Rectangle 4596" width="14.661" height="0.191" transform="translate(302.995 255.336)" fill="#ebebeb"/>
      <rect id="Rectangle_4597" data-name="Rectangle 4597" width="32.997" height="0.191" transform="translate(40.079 256.62)" fill="#ebebeb"/>
      <rect id="Rectangle_4598" data-name="Rectangle 4598" width="4.836" height="0.191" transform="translate(79.884 256.62)" fill="#ebebeb"/>
      <rect id="Rectangle_4599" data-name="Rectangle 4599" width="71.572" height="0.191" transform="translate(100.443 259.844)" fill="#ebebeb"/>
      <path id="Path_14918" data-name="Path 14918" d="M190.086,271.059H42.565A4.362,4.362,0,0,1,38.21,266.7V59.324A4.362,4.362,0,0,1,42.565,55H190.086a4.362,4.362,0,0,1,4.362,4.362V266.7A4.362,4.362,0,0,1,190.086,271.059ZM42.565,55.153A4.171,4.171,0,0,0,38.4,59.324V266.7a4.171,4.171,0,0,0,4.164,4.171H190.086a4.179,4.179,0,0,0,4.171-4.171V59.324a4.179,4.179,0,0,0-4.171-4.171Z" transform="translate(-9.018 -55)" fill="#ebebeb"/>
      <path id="Path_14919" data-name="Path 14919" d="M406.391,271.059H258.862A4.37,4.37,0,0,1,254.5,266.7V59.324A4.37,4.37,0,0,1,258.862,55H406.391a4.362,4.362,0,0,1,4.347,4.324V266.7A4.363,4.363,0,0,1,406.391,271.059ZM258.862,55.153a4.179,4.179,0,0,0-4.171,4.171V266.7a4.179,4.179,0,0,0,4.171,4.171H406.391a4.179,4.179,0,0,0,4.171-4.171V59.324a4.179,4.179,0,0,0-4.171-4.171Z" transform="translate(-60.062 -55)" fill="#ebebeb"/>
      <rect id="Rectangle_4600" data-name="Rectangle 4600" width="105.264" height="68.936" transform="translate(326.587 90.962) rotate(180)" fill="#e6e6e6"/>
      <rect id="Rectangle_4601" data-name="Rectangle 4601" width="106.975" height="68.936" transform="translate(325.082 90.962) rotate(180)" fill="#f0f0f0"/>
      <rect id="Rectangle_4602" data-name="Rectangle 4602" width="105.264" height="13.53" transform="translate(326.587 104.485) rotate(180)" fill="#e6e6e6"/>
      <rect id="Rectangle_4603" data-name="Rectangle 4603" width="106.975" height="13.53" transform="translate(319.742 104.485) rotate(180)" fill="#f0f0f0"/>
      <rect id="Rectangle_4604" data-name="Rectangle 4604" width="59.943" height="97.983" transform="translate(320.59 26.526) rotate(90)" fill="#fafafa"/>
      <path id="Path_14920" data-name="Path 14920" d="M380.8,149.656,368.288,89.72H348.76l12.514,59.936Z" transform="translate(-82.307 -63.194)" fill="#fff"/>
      <path id="Path_14921" data-name="Path 14921" d="M416.8,145.991a.321.321,0,0,0,.321-.329V93.451a.321.321,0,0,0-.321-.321.313.313,0,0,0-.321.321v52.212a.321.321,0,0,0,.321.329Z" transform="translate(-98.289 -63.999)" fill="#f0f0f0"/>
      <path id="Path_14922" data-name="Path 14922" d="M353.431,149.656,340.917,89.72H333.3l12.522,59.936Z" transform="translate(-78.659 -63.194)" fill="#fff"/>
      <rect id="Rectangle_4605" data-name="Rectangle 4605" width="59.943" height="0.573" transform="translate(223.18 26.526) rotate(90)" fill="#e6e6e6"/>
      <path id="Path_14923" data-name="Path 14923" d="M284.1,97.035H389.364L389.776,92H284.513Z" transform="translate(-67.048 -63.732)" fill="#ebebeb" opacity="0.6"/>
      <path id="Path_14924" data-name="Path 14924" d="M284.1,107.837H389.364l.413-5.027H284.513Z" transform="translate(-67.048 -66.283)" fill="#ebebeb" opacity="0.6"/>
      <path id="Path_14925" data-name="Path 14925" d="M284.1,118.637H389.364l.413-5.027H284.513Z" transform="translate(-67.048 -68.832)" fill="#ebebeb" opacity="0.6"/>
      <path id="Path_14926" data-name="Path 14926" d="M284.1,129.445H389.364l.413-5.035H284.513Z" transform="translate(-67.048 -71.381)" fill="#ebebeb" opacity="0.6"/>
      <path id="Path_14927" data-name="Path 14927" d="M284.1,140.245H389.364l.413-5.035H284.513Z" transform="translate(-67.048 -73.93)" fill="#ebebeb" opacity="0.6"/>
      <path id="Path_14928" data-name="Path 14928" d="M284.1,151.045H389.364l.413-5.035H284.513Z" transform="translate(-67.048 -76.478)" fill="#ebebeb" opacity="0.6"/>
      <rect id="Rectangle_4606" data-name="Rectangle 4606" width="22.072" height="4.355" transform="translate(289.403 200)" fill="#e6e6e6"/>
      <rect id="Rectangle_4607" data-name="Rectangle 4607" width="4.072" height="100.137" transform="translate(251.845 250.134) rotate(180)" fill="#e6e6e6"/>
      <rect id="Rectangle_4608" data-name="Rectangle 4608" width="55.741" height="4.355" transform="translate(289.396 204.355) rotate(180)" fill="#f5f5f5"/>
      <rect id="Rectangle_4609" data-name="Rectangle 4609" width="22.072" height="4.355" transform="translate(289.403 223.814)" fill="#e6e6e6"/>
      <rect id="Rectangle_4610" data-name="Rectangle 4610" width="55.741" height="4.355" transform="translate(289.396 228.161) rotate(180)" fill="#f5f5f5"/>
      <rect id="Rectangle_4611" data-name="Rectangle 4611" width="22.072" height="4.355" transform="translate(289.403 152.38)" fill="#e6e6e6"/>
      <rect id="Rectangle_4612" data-name="Rectangle 4612" width="55.741" height="4.355" transform="translate(289.396 156.727) rotate(180)" fill="#f5f5f5"/>
      <rect id="Rectangle_4613" data-name="Rectangle 4613" width="22.072" height="4.355" transform="translate(289.403 176.186)" fill="#e6e6e6"/>
      <rect id="Rectangle_4614" data-name="Rectangle 4614" width="55.741" height="4.355" transform="translate(289.396 180.541) rotate(180)" fill="#f5f5f5"/>
      <rect id="Rectangle_4615" data-name="Rectangle 4615" width="4.072" height="100.137" transform="translate(307.594 250.134) rotate(180)" fill="#e6e6e6"/>
      <rect id="Rectangle_4616" data-name="Rectangle 4616" width="4.072" height="100.137" transform="translate(289.396 250.134) rotate(180)" fill="#f5f5f5"/>
      <rect id="Rectangle_4617" data-name="Rectangle 4617" width="4.072" height="100.137" transform="translate(237.726 250.134) rotate(180)" fill="#f5f5f5"/>
      <rect id="Rectangle_4618" data-name="Rectangle 4618" width="41.699" height="80.9" transform="translate(91.649 250.134) rotate(180)" fill="#e6e6e6"/>
      <path id="Path_14929" data-name="Path 14929" d="M76.509,378.95H65.37V367.78H88.183Z" transform="translate(-15.427 -128.816)" fill="#fafafa"/>
      <rect id="Rectangle_4619" data-name="Rectangle 4619" width="41.699" height="80.9" transform="translate(205.333 250.134) rotate(180)" fill="#e6e6e6"/>
      <rect id="Rectangle_4620" data-name="Rectangle 4620" width="123.409" height="77.057" transform="translate(173.359 246.283) rotate(180)" fill="#fafafa"/>
      <path id="Path_14930" data-name="Path 14930" d="M208.724,378.95h11.132V367.78H197.05Z" transform="translate(-46.504 -128.816)" fill="#fafafa"/>
      <rect id="Rectangle_4621" data-name="Rectangle 4621" width="106.135" height="19.283" transform="translate(164.718 217.228) rotate(180)" fill="#f0f0f0"/>
      <rect id="Rectangle_4622" data-name="Rectangle 4622" width="106.135" height="19.283" transform="translate(164.718 240.629) rotate(180)" fill="#f0f0f0"/>
      <path id="Path_14931" data-name="Path 14931" d="M3.491,0H69.28a3.5,3.5,0,0,1,3.5,3.5v.237H0V3.5A3.5,3.5,0,0,1,3.491,0Z" transform="translate(148.04 200.008) rotate(180)" fill="#fafafa"/>
      <rect id="Rectangle_4623" data-name="Rectangle 4623" width="106.135" height="19.283" transform="translate(164.718 193.819) rotate(180)" fill="#f0f0f0"/>
      <path id="Path_14932" data-name="Path 14932" d="M3.491,0H69.28a3.5,3.5,0,0,1,3.5,3.5v.237H0V3.5A3.5,3.5,0,0,1,3.491,0Z" transform="translate(148.04 176.599) rotate(180)" fill="#fafafa"/>
      <path id="Path_14933" data-name="Path 14933" d="M3.491,0H69.28a3.5,3.5,0,0,1,3.5,3.5v.237H0V3.5A3.5,3.5,0,0,1,3.491,0Z" transform="translate(148.04 223.417) rotate(180)" fill="#fafafa"/>
      <rect id="Rectangle_4624" data-name="Rectangle 4624" width="105.264" height="68.936" transform="translate(161.853 90.962) rotate(180)" fill="#e6e6e6"/>
      <rect id="Rectangle_4625" data-name="Rectangle 4625" width="106.975" height="68.936" transform="translate(160.356 90.962) rotate(180)" fill="#f0f0f0"/>
      <rect id="Rectangle_4626" data-name="Rectangle 4626" width="105.264" height="13.53" transform="translate(161.853 104.485) rotate(180)" fill="#e6e6e6"/>
      <rect id="Rectangle_4627" data-name="Rectangle 4627" width="106.975" height="13.53" transform="translate(155 104.485) rotate(180)" fill="#f0f0f0"/>
      <rect id="Rectangle_4628" data-name="Rectangle 4628" width="59.943" height="97.983" transform="translate(155.856 26.526) rotate(90)" fill="#fafafa"/>
      <path id="Path_14934" data-name="Path 14934" d="M165.182,149.656,152.668,89.72H133.14l12.514,59.936Z" transform="translate(-31.421 -63.194)" fill="#fff"/>
      <path id="Path_14935" data-name="Path 14935" d="M201.171,145.991a.321.321,0,0,0,.321-.329V93.451a.313.313,0,0,0-.321-.321.321.321,0,0,0-.321.321v52.212a.321.321,0,0,0,.321.329Z" transform="translate(-47.401 -63.999)" fill="#f0f0f0"/>
      <path id="Path_14936" data-name="Path 14936" d="M137.811,149.656,125.3,89.72H117.68l12.514,59.936Z" transform="translate(-27.772 -63.194)" fill="#fff"/>
      <rect id="Rectangle_4629" data-name="Rectangle 4629" width="59.943" height="0.573" transform="translate(58.446 26.526) rotate(90)" fill="#e6e6e6"/>
      <path id="Path_14937" data-name="Path 14937" d="M68.47,97.035H173.734L174.146,92H68.883Z" transform="translate(-16.159 -63.732)" fill="#ebebeb" opacity="0.6"/>
      <path id="Path_14938" data-name="Path 14938" d="M68.47,100.755H173.734l.413-5.035H68.883Z" transform="translate(-16.159 -64.61)" fill="#ebebeb" opacity="0.6"/>
      <path id="Path_14939" data-name="Path 14939" d="M68.47,104.467H173.734l.413-5.027H68.883Z" transform="translate(-16.159 -65.488)" fill="#ebebeb" opacity="0.6"/>
      <path id="Path_14940" data-name="Path 14940" d="M68.47,108.185H173.734l.413-5.035H68.883Z" transform="translate(-16.159 -66.363)" fill="#ebebeb" opacity="0.6"/>
      <path id="Path_14941" data-name="Path 14941" d="M68.47,111.9H173.734l.413-5.027H68.883Z" transform="translate(-16.159 -67.241)" fill="#ebebeb" opacity="0.6"/>
      <path id="Path_14942" data-name="Path 14942" d="M68.47,115.615H173.734l.413-5.035H68.883Z" transform="translate(-16.159 -68.117)" fill="#ebebeb" opacity="0.6"/>
      <rect id="Rectangle_4630" data-name="Rectangle 4630" width="3.637" height="40.561" transform="translate(76.996 166.758) rotate(180)" fill="#f5f5f5"/>
      <rect id="Rectangle_4631" data-name="Rectangle 4631" width="1.031" height="40.561" transform="translate(74.849 166.735) rotate(180)" fill="#fafafa"/>
      <rect id="Rectangle_4632" data-name="Rectangle 4632" width="0.405" height="40.561" transform="translate(75.682 166.735) rotate(180)" fill="#fafafa"/>
      <path id="Path_14943" data-name="Path 14943" d="M0,0H26.923a3.392,3.392,0,0,1-3.392,3.392H3.4A3.392,3.392,0,0,1,.008,0H0Z" transform="translate(88.647 169.234) rotate(180)" fill="#f0f0f0"/>
      <path id="Path_14944" data-name="Path 14944" d="M89.514,244.288h0a1.054,1.054,0,0,0,1.047-1.047V216.677a1.047,1.047,0,0,0-1.047-1.047h0a1.047,1.047,0,0,0-1.054,1.047v26.595a1.054,1.054,0,0,0,1.054,1.016Z" transform="translate(-20.877 -92.909)" fill="#f0f0f0"/>
      <path id="Path_14945" data-name="Path 14945" d="M77.07,225.767h32.585L105.9,203H80.821Z" transform="translate(-18.189 -89.928)" fill="#e0e0e0"/>
    </g>
    <g id="freepik--Shadow--inject-1" transform="translate(42.868 322.339)">
      <ellipse id="freepik--path--inject-1" cx="148.132" cy="8.648" rx="148.132" ry="8.648" transform="translate(0 0)" fill="#f5f5f5"/>
    </g>
    <g id="freepik--window-no-data--inject-1" transform="translate(78.786 128.664)">
      <rect id="Rectangle_4633" data-name="Rectangle 4633" width="0.764" height="14.126" transform="translate(0 38.973) rotate(-4.12)" fill="#407bff"/>
      <rect id="Rectangle_4634" data-name="Rectangle 4634" width="0.764" height="5.317" transform="translate(1.533 60.337) rotate(-4.12)" fill="#407bff"/>
      <path id="Path_14946" data-name="Path 14946" d="M282.45,276.517H118.832a7.373,7.373,0,0,1-7.212-6.731l-8.037-111.643a6.188,6.188,0,0,1,6.242-6.723H273.443a7.373,7.373,0,0,1,7.212,6.723l8.037,111.643a6.2,6.2,0,0,1-6.242,6.731Z" transform="translate(-103.226 -151.419)" fill="#407bff"/>
      <path id="Path_14947" data-name="Path 14947" d="M283.271,276.517H119.652a7.373,7.373,0,0,1-7.212-6.731L104.4,158.143a6.188,6.188,0,0,1,6.242-6.723H274.263a7.373,7.373,0,0,1,7.212,6.723l8.037,111.643a6.188,6.188,0,0,1-6.242,6.731Z" transform="translate(-103.419 -151.419)" fill="#407bff"/>
      <path id="Path_14948" data-name="Path 14948" d="M283.271,276.517H119.652a7.373,7.373,0,0,1-7.212-6.731L104.4,158.143a6.188,6.188,0,0,1,6.242-6.723H274.263a7.373,7.373,0,0,1,7.212,6.723l8.037,111.643a6.188,6.188,0,0,1-6.242,6.731Z" transform="translate(-103.419 -151.419)" fill="#fff" opacity="0.5"/>
      <path id="Path_14949" data-name="Path 14949" d="M275.5,155.82H111.335c-4.179.344-3.323,6.708.894,6.708H276.122c4.225,0,4.164-6.364-.069-6.708Z" transform="translate(-104.415 -152.458)" fill="#407bff"/>
      <path id="Path_14950" data-name="Path 14950" d="M117.525,159.748a1.413,1.413,0,0,1-1.436,1.528,1.681,1.681,0,0,1-1.65-1.528,1.413,1.413,0,0,1,1.429-1.528A1.681,1.681,0,0,1,117.525,159.748Z" transform="translate(-105.792 -153.024)" fill="#fafafa"/>
      <path id="Path_14951" data-name="Path 14951" d="M124.4,159.748a1.413,1.413,0,0,1-1.436,1.528,1.681,1.681,0,0,1-1.65-1.528,1.413,1.413,0,0,1,1.429-1.528A1.681,1.681,0,0,1,124.4,159.748Z" transform="translate(-107.413 -153.024)" fill="#fafafa"/>
      <path id="Path_14952" data-name="Path 14952" d="M131.257,159.748a1.413,1.413,0,0,1-1.429,1.528,1.673,1.673,0,0,1-1.65-1.528,1.406,1.406,0,0,1,1.429-1.528A1.681,1.681,0,0,1,131.257,159.748Z" transform="translate(-109.034 -153.024)" fill="#fafafa"/>
      <path id="Path_14953" data-name="Path 14953" d="M281.654,270.711H125.148a2.666,2.666,0,0,1-2.613-2.445l-6.609-91.81a2.231,2.231,0,0,1,2.292-2.437H274.763a2.659,2.659,0,0,1,2.613,2.437l6.616,91.81a2.246,2.246,0,0,1-2.338,2.445Z" transform="translate(-106.142 -156.753)" fill="#fff"/>
      <path id="Path_14954" data-name="Path 14954" d="M236.795,242.434l-2.552-35.389-7.716-4.645H205.28l2.888,40.034Z" transform="translate(-127.232 -163.451)" fill="#fff"/>
      <path id="Path_14955" data-name="Path 14955" d="M236.681,242.685H208.054a.367.367,0,0,1-.374-.344l-2.88-40.034a.359.359,0,0,1,.1-.275.367.367,0,0,1,.267-.122h21.247a.42.42,0,0,1,.191.053l7.716,4.645a.367.367,0,0,1,.183.29l2.536,35.388a.352.352,0,0,1-.1.283.359.359,0,0,1-.26.115Zm-28.268-.764h27.863l-2.506-34.8-7.426-4.469H205.564Z" transform="translate(-127.118 -163.335)" fill="#407bff"/>
      <path id="Path_14956" data-name="Path 14956" d="M240.806,207.045,233.09,202.4l2.834,6.158Z" transform="translate(-133.795 -163.451)" fill="#ebebeb"/>
      <path id="Path_14957" data-name="Path 14957" d="M235.81,208.809a.374.374,0,0,1-.336-.214l-2.834-6.158a.368.368,0,0,1,.527-.474l7.716,4.645a.382.382,0,0,1,.183.367.374.374,0,0,1-.26.306l-4.89,1.528Zm-1.994-5.592,2.193,4.775,3.82-1.169Z" transform="translate(-133.68 -163.335)" fill="#407bff"/>
      <path id="Path_14958" data-name="Path 14958" d="M219.993,225.5a1.528,1.528,0,0,1-1.528,1.612,1.765,1.765,0,0,1-1.727-1.612,1.482,1.482,0,0,1,1.528-1.62,1.772,1.772,0,0,1,1.727,1.62Z" transform="translate(-129.934 -168.52)" fill="#407bff"/>
      <path id="Path_14959" data-name="Path 14959" d="M233.691,225.5a1.482,1.482,0,0,1-1.528,1.612,1.772,1.772,0,0,1-1.734-1.612,1.528,1.528,0,0,1,1.528-1.62A1.765,1.765,0,0,1,233.691,225.5Z" transform="translate(-133.166 -168.52)" fill="#407bff"/>
      <path id="Path_14960" data-name="Path 14960" d="M232.837,237.946a.374.374,0,0,1-.367-.344c-.191-2.605-4.271-4.722-9.092-4.722-3.2,0-6.074.955-7.495,2.483a2.857,2.857,0,0,0-.871,2.185.383.383,0,1,1-.764.053,3.637,3.637,0,0,1,1.07-2.743c1.528-1.673,4.638-2.72,8.037-2.72,5.295,0,9.611,2.376,9.825,5.409a.367.367,0,0,1-.344.39Z" transform="translate(-129.347 -170.469)" fill="#407bff"/>
      <path id="Path_14961" data-name="Path 14961" d="M213.059,220.954a.39.39,0,0,1-.252-.1.374.374,0,0,1,0-.527l1.627-1.75a.374.374,0,0,1,.52,0,.367.367,0,0,1,0,.52l-1.627,1.75a.367.367,0,0,1-.267.107Z" transform="translate(-128.982 -167.244)" fill="#407bff"/>
      <path id="Path_14962" data-name="Path 14962" d="M236.889,220.954a.42.42,0,0,1-.252-.1l-1.872-1.75a.367.367,0,0,1,0-.527.374.374,0,0,1,.519,0l1.872,1.75a.367.367,0,0,1,0,.52A.4.4,0,0,1,236.889,220.954Z" transform="translate(-134.164 -167.244)" fill="#407bff"/>
      <path id="Path_14963" data-name="Path 14963" d="M202.26,265.15h1.727l2.491,3.316-.237-3.316h1.742l.428,5.99h-1.765l-2.475-3.293.237,3.293h-1.742Z" transform="translate(-126.519 -178.26)" fill="#407bff"/>
      <path id="Path_14964" data-name="Path 14964" d="M211.321,268.107a2.9,2.9,0,0,1,.657-2.292,2.873,2.873,0,0,1,2.216-.817,3.346,3.346,0,0,1,2.361.8,3.3,3.3,0,0,1,.97,2.246,3.644,3.644,0,0,1-.229,1.719,2.292,2.292,0,0,1-.947,1.047,3.178,3.178,0,0,1-1.635.374,4.009,4.009,0,0,1-1.7-.321,2.766,2.766,0,0,1-1.146-1.024,3.56,3.56,0,0,1-.542-1.734Zm1.856,0a2.086,2.086,0,0,0,.428,1.3,1.215,1.215,0,0,0,.947.4,1.054,1.054,0,0,0,.894-.39,2.1,2.1,0,0,0,.206-1.36,1.963,1.963,0,0,0-.428-1.238,1.253,1.253,0,0,0-.955-.39,1.055,1.055,0,0,0-.871.4,1.933,1.933,0,0,0-.222,1.3Z" transform="translate(-128.65 -178.222)" fill="#407bff"/>
      <path id="Path_14965" data-name="Path 14965" d="M224.15,265.149h2.75a3.445,3.445,0,0,1,1.329.222,2.338,2.338,0,0,1,.871.634,2.873,2.873,0,0,1,.542.955,4.813,4.813,0,0,1,.229,1.161,3.882,3.882,0,0,1-.115,1.49,2.14,2.14,0,0,1-.542.886,1.757,1.757,0,0,1-.764.474,4.278,4.278,0,0,1-1.092.168h-2.743Zm1.948,1.36.237,3.27h.451a1.871,1.871,0,0,0,.817-.13.764.764,0,0,0,.351-.451,2.705,2.705,0,0,0,.061-1.039,2.078,2.078,0,0,0-.4-1.3,1.383,1.383,0,0,0-1.054-.351Z" transform="translate(-131.685 -178.259)" fill="#407bff"/>
      <path id="Path_14966" data-name="Path 14966" d="M236.15,270.147h-2.1l-.222.993H231.94l1.818-5.99h2.048l2.682,5.99h-1.941Zm-.481-1.291-.81-2.155-.5,2.155Z" transform="translate(-133.523 -178.26)" fill="#407bff"/>
      <path id="Path_14967" data-name="Path 14967" d="M239.37,265.15h5.623l.107,1.482h-1.887l.321,4.508h-1.849l-.321-4.508h-1.887Z" transform="translate(-135.277 -178.26)" fill="#407bff"/>
      <path id="Path_14968" data-name="Path 14968" d="M251.07,270.147h-2.1l-.222.993H246.86l1.818-5.99H250.7l2.674,5.99h-1.933Zm-.481-1.291-.817-2.155-.512,2.155Z" transform="translate(-137.045 -178.26)" fill="#407bff"/>
    </g>
    <g id="freepik--Character--inject-1" transform="translate(219.587 99.307)">
      <path id="Path_14969" data-name="Path 14969" d="M353.69,163.463c.68-.344,1.528-.764,2.246-1.2s1.528-.856,2.292-1.314c1.49-.924,3-1.834,4.431-2.842a58.783,58.783,0,0,0,8.037-6.616c.313-.29.588-.611.886-.924l.435-.466.214-.229.107-.122h0c-.107.206,0,.145,0-.054a4.029,4.029,0,0,0,.115-.833,23.378,23.378,0,0,0-.558-4.828c-.68-3.423-1.711-6.952-2.727-10.406l2.964-1.3a62.127,62.127,0,0,1,4.668,10.39,24.2,24.2,0,0,1,1.314,6.028,9.161,9.161,0,0,1-.061,1.918,5.89,5.89,0,0,1-.932,2.514l-.13.176-.1.122-.115.145-.237.29-.474.573c-.313.374-.619.764-.955,1.123a54.9,54.9,0,0,1-8.694,7.793,57.688,57.688,0,0,1-4.806,3.2c-.818.5-1.65.97-2.5,1.436s-1.673.894-2.651,1.352Z" transform="translate(-303.057 -117.556)" fill="#ffb573"/>
      <path id="Path_14970" data-name="Path 14970" d="M344.331,407.679a7.854,7.854,0,0,0,1.7-.229.169.169,0,0,0,.115-.122.161.161,0,0,0-.069-.153c-.222-.145-2.162-1.4-2.911-1.062a.52.52,0,0,0-.3.428.863.863,0,0,0,.252.8A1.8,1.8,0,0,0,344.331,407.679Zm1.261-.443a3.086,3.086,0,0,1-2.292-.115.588.588,0,0,1-.153-.542.229.229,0,0,1,.13-.191C343.682,406.212,344.805,406.777,345.592,407.235Z" transform="translate(-300.498 -182.156)" fill="#407bff"/>
      <path id="Path_14971" data-name="Path 14971" d="M346.47,406.99h.076a.161.161,0,0,0,.076-.13c0-.084,0-1.925-.7-2.536a.764.764,0,0,0-.642-.206.527.527,0,0,0-.512.42c-.145.764,1.016,2.1,1.627,2.452a.138.138,0,0,0,.076,0Zm-1.093-2.59a.5.5,0,0,1,.336.13,3.461,3.461,0,0,1,.6,2.017c-.611-.489-1.337-1.528-1.245-1.963,0-.069.053-.16.245-.183Z" transform="translate(-300.948 -181.696)" fill="#407bff"/>
      <path id="Path_14972" data-name="Path 14972" d="M342.355,148.07c-.764,3.82-2.292,11.46.344,14.019,0,0-1.039,3.82-8.091,3.82-7.762,0-3.705-3.82-3.705-3.82,4.233-1.008,4.118-4.149,3.385-7.105Z" transform="translate(-297.43 -121.271)" fill="#ffb573"/>
      <path id="Path_14973" data-name="Path 14973" d="M329.1,167.084c-1.215.168-.176-2.987.313-3.316,1.146-.764,15.937-1.826,15.838,0a4.823,4.823,0,0,1-1.07,2.8C343.544,167.069,339.74,165.495,329.1,167.084Z" transform="translate(-297.121 -124.738)" fill="#263238"/>
      <path id="Path_14974" data-name="Path 14974" d="M332.2,165.154c-.97.328-.879-2.85-.55-3.232.764-.886,12.736-3.958,13.087-2.223a4.863,4.863,0,0,1-.206,2.834C344.118,163.076,340.6,162.182,332.2,165.154Z" transform="translate(-297.802 -123.892)" fill="#263238"/>
      <path id="Path_14975" data-name="Path 14975" d="M325.817,138.6a.305.305,0,0,1-.252-.115,2.43,2.43,0,0,0-1.979-.94.3.3,0,0,1-.336-.267.306.306,0,0,1,.267-.329,2.987,2.987,0,0,1,2.514,1.154.306.306,0,0,1-.038.428.382.382,0,0,1-.176.069Z" transform="translate(-295.873 -118.646)" fill="#263238"/>
      <path id="Path_14976" data-name="Path 14976" d="M324.2,144a13.68,13.68,0,0,1-1.528,3.461,2.216,2.216,0,0,0,1.864.16Z" transform="translate(-295.737 -120.311)" fill="#ff5652"/>
      <path id="Path_14977" data-name="Path 14977" d="M324.783,142.52c.053.512-.183.955-.52.986s-.649-.351-.7-.871.183-.955.512-.986S324.729,142,324.783,142.52Z" transform="translate(-295.947 -119.755)" fill="#263238"/>
      <path id="Path_14978" data-name="Path 14978" d="M324.048,141.6l-1.268-.237S323.506,142.262,324.048,141.6Z" transform="translate(-295.763 -119.688)" fill="#263238"/>
      <path id="Path_14979" data-name="Path 14979" d="M354.722,403.112h-6.4l.5-14.822h6.4Z" transform="translate(-301.79 -177.963)" fill="#ffb573"/>
      <path id="Path_14980" data-name="Path 14980" d="M344.811,406.72H352a.5.5,0,0,1,.512.435l.818,5.684a1.024,1.024,0,0,1-1.024,1.138c-2.506-.038-3.713-.191-6.876-.191-1.948,0-4.79.206-7.472.206s-2.834-2.659-1.711-2.9c5.012-1.085,5.806-2.567,7.495-3.988A1.688,1.688,0,0,1,344.811,406.72Z" transform="translate(-298.785 -182.312)" fill="#263238"/>
      <g id="Group_6643" data-name="Group 6643" transform="translate(46.774 210.327)" opacity="0.2">
        <path id="Path_14981" data-name="Path 14981" d="M355.3,388.29h-6.4l-.26,7.64h6.4Z" transform="translate(-348.64 -388.29)"/>
      </g>
      <path id="Path_14982" data-name="Path 14982" d="M314.885,168.086a124.132,124.132,0,0,1-11.5-5.157,69.707,69.707,0,0,1-11-6.7,26.217,26.217,0,0,1-2.613-2.346c-.214-.229-.428-.443-.634-.711a8.644,8.644,0,0,1-.672-.863,6.035,6.035,0,0,1-1.024-2.758,6.279,6.279,0,0,1,.374-2.766,8.127,8.127,0,0,1,1.077-1.986,13.85,13.85,0,0,1,2.59-2.689,32.087,32.087,0,0,1,5.577-3.568c.947-.5,1.91-.955,2.888-1.375s1.941-.817,2.987-1.177l1.352,2.941a52.672,52.672,0,0,0-9.321,7,10.587,10.587,0,0,0-1.49,1.9c-.367.6-.359,1.054-.3,1.016s0,0,.107.076l.306.329c.115.138.275.275.42.42a19.575,19.575,0,0,0,2.055,1.65,48.058,48.058,0,0,0,4.92,3.056c1.719.963,3.491,1.872,5.294,2.743,3.606,1.727,7.334,3.385,10.994,4.9Z" transform="translate(-287.417 -118.42)" fill="#ffb573"/>
      <path id="Path_14983" data-name="Path 14983" d="M310.648,135.935l1.054-2.292L306.874,132s-1.528,4.515.283,6.593h0A4.622,4.622,0,0,0,310.648,135.935Z" transform="translate(-291.867 -117.479)" fill="#ffb573"/>
      <path id="Path_14984" data-name="Path 14984" d="M311.866,127.315l-3.843-1.115-.963,4.4,4.806,1.673Z" transform="translate(-292.053 -116.11)" fill="#ffb573"/>
      <path id="Path_14985" data-name="Path 14985" d="M376.993,132.788l.558-5.348-4.951,1.192s-.076,5.027,2.544,5.822Z" transform="translate(-307.52 -116.402)" fill="#ffb573"/>
      <path id="Path_14986" data-name="Path 14986" d="M374.962,122.51l-3.232,1.505.665,3.415,4.951-1.169Z" transform="translate(-307.315 -115.239)" fill="#ffb573"/>
      <path id="Path_14987" data-name="Path 14987" d="M342.03,135.643c.237,6.349.466,9.031-2.4,12.583-4.317,5.348-12.163,4.24-14.287-1.91-1.91-5.531-1.971-14.982,3.958-18.1a8.664,8.664,0,0,1,12.728,7.426Z" transform="translate(-296.096 -116.346)" fill="#ffb573"/>
      <path id="Path_14988" data-name="Path 14988" d="M339.08,146.809c6.234-2.7,10.329-8.4,8.6-17.251-1.658-8.488-7.388-9.328-9.756-7.571s-8.274-.863-11.819,2.116c-6.112,5.172-.336,10.7,2.689,14.035C330.6,141.85,332.968,149.445,339.08,146.809Z" transform="translate(-295.912 -114.937)" fill="#263238"/>
      <path id="Path_14989" data-name="Path 14989" d="M340.14,126.981a6.334,6.334,0,1,0,1.4-9.107,6.517,6.517,0,0,0-1.4,9.107Z" transform="translate(-299.562 -113.88)" fill="#407bff"/>
      <path id="Path_14990" data-name="Path 14990" d="M342.617,120.638c-.894-5.119,3.942-9.061,10.421-7.159s3.056,7.64,1.719,12.224,2.162,8.954,3.614,5.463-.993-4.584-.993-4.584,6.876,1.78.489,9.535-12.171-.81-10.6-5.86C348.53,126.2,343.465,125.474,342.617,120.638Z" transform="translate(-300.419 -112.993)" fill="#263238"/>
      <path id="Path_14991" data-name="Path 14991" d="M330.555,125.1c-2.957-1.528-7.961-2.789-10.811,2.009a9.029,9.029,0,0,0-.825,5.348l8.7.573Z" transform="translate(-294.828 -115.527)" fill="#263238"/>
      <path id="Path_14992" data-name="Path 14992" d="M317.553,130.844h0a.2.2,0,0,1-.183-.206,8.991,8.991,0,0,1,2.078-5.126c4.485-4.66,9.741-.764,11.238.5a.191.191,0,0,1-.244.29c-1.444-1.238-6.471-4.943-10.7-.527a8.834,8.834,0,0,0-1.971,4.89.191.191,0,0,1-.222.183Z" transform="translate(-294.486 -115.421)" fill="#263238"/>
      <path id="Path_14993" data-name="Path 14993" d="M330.648,142.427a5.264,5.264,0,0,1-1.261,3.27c-1.054,1.238-2.292.626-2.544-.764-.252-1.23,0-3.362,1.329-4.1A1.62,1.62,0,0,1,330.648,142.427Z" transform="translate(-296.701 -119.501)" fill="#ffb573"/>
      <path id="Path_14994" data-name="Path 14994" d="M330.05,219.12s.413,44.427,4.263,69.18c3.117,19.994,8.87,66.231,8.87,66.231h8.732s.848-44.641-.764-64.413c-4-50.042,6.326-59.4-2-71Z" transform="translate(-297.478 -138.039)" fill="#263238"/>
      <path id="Path_14995" data-name="Path 14995" d="M330.05,219.12s.413,44.427,4.263,69.18c3.117,19.994,8.87,66.231,8.87,66.231h8.732s.848-44.641-.764-64.413c-4-50.042,6.326-59.4-2-71Z" transform="translate(-297.478 -138.039)" fill="#fff" opacity="0.1"/>
      <path id="Path_14996" data-name="Path 14996" d="M334.774,244.33c3.056,13.408.619,34.525-1.054,43.823-1.772-14.119-2.666-32.416-3.109-45.84C332.191,239.762,333.689,239.594,334.774,244.33Z" transform="translate(-297.611 -143.095)" opacity="0.3"/>
      <path id="Path_14997" data-name="Path 14997" d="M345.661,395.254h11.116l.581-3.9-11.758-.4Z" transform="translate(-301.148 -178.593)" fill="#407bff"/>
      <path id="Path_14998" data-name="Path 14998" d="M349.57,168.957c1.047-2.078,6.67-3.385,9.741-3.377l2.292,10.207s-6.112,9.084-8.664,8.121C349.937,182.8,347.331,173.442,349.57,168.957Z" transform="translate(-301.886 -125.403)" fill="#407bff"/>
      <path id="Path_14999" data-name="Path 14999" d="M349.57,168.957c1.047-2.078,6.67-3.385,9.741-3.377l2.292,10.207s-6.112,9.084-8.664,8.121C349.937,182.8,347.331,173.442,349.57,168.957Z" transform="translate(-301.886 -125.403)" opacity="0.4"/>
      <path id="Path_15000" data-name="Path 15000" d="M340.191,393.239a.145.145,0,0,0,0-.145.153.153,0,0,0-.16-.084c-.321.053-3.148.5-3.53,1.306a.5.5,0,0,0,0,.481.84.84,0,0,0,.657.436c.924.092,2.292-1.192,2.98-1.971Zm-3.392,1.177c.26-.428,1.727-.825,2.842-1.031-1.009,1.024-1.895,1.6-2.414,1.528a.542.542,0,0,1-.428-.29.191.191,0,0,1,0-.191A.011.011,0,0,1,336.8,394.415Z" transform="translate(-298.986 -179.076)" fill="#407bff"/>
      <path id="Path_15001" data-name="Path 15001" d="M340.327,392.823a.145.145,0,0,0,0-.145,4.262,4.262,0,0,0-2.223-1.429,1.1,1.1,0,0,0-.833.283c-.313.283-.283.527-.206.68.328.657,2.361.886,3.178.71a.137.137,0,0,0,.084-.1Zm-2.987-.963a.6.6,0,0,1,.122-.138.764.764,0,0,1,.6-.206,3.514,3.514,0,0,1,1.826,1.123c-.909.076-2.376-.2-2.575-.6a.183.183,0,0,1,.023-.183Z" transform="translate(-299.122 -178.66)" fill="#407bff"/>
      <path id="Path_15002" data-name="Path 15002" d="M346.29,385.632l-5.852,2.605-2.605-5.432-3.408-7.105-.4-.825,5.852-2.605.451.932,3.3,6.884Z" transform="translate(-298.415 -174.182)" fill="#ffb573"/>
      <path id="Path_15003" data-name="Path 15003" d="M343.749,380.374l-5.791,2.72-3.407-7.105,5.9-2.5Z" transform="translate(-298.54 -174.47)" opacity="0.2"/>
      <path id="Path_15004" data-name="Path 15004" d="M316.591,219.12s-18.7,46.512-13.63,68.363c4.584,19.78,24.83,57.239,24.83,57.239l7.846-3.927s-12.522-45.221-13.874-55.046c-2.643-19.1,14.34-46.092,14.34-66.628Z" transform="translate(-290.88 -138.039)" fill="#263238"/>
      <path id="Path_15005" data-name="Path 15005" d="M316.591,219.12s-18.7,46.512-13.63,68.363c4.584,19.78,24.83,57.239,24.83,57.239l7.846-3.927s-12.522-45.221-13.874-55.046c-2.643-19.1,14.34-46.092,14.34-66.628Z" transform="translate(-290.88 -138.039)" fill="#fff" opacity="0.1"/>
      <path id="Path_15006" data-name="Path 15006" d="M339.373,390.762l5.806-4.225a.5.5,0,0,1,.672.046l4.011,4.118a1.031,1.031,0,0,1-.16,1.528c-2.055,1.436-3.117,2.032-5.669,3.889-1.574,1.146-4.706,3.675-6.876,5.256s-3.82-.481-3.056-1.329c3.423-3.82,4.141-6.188,4.676-8.335a1.658,1.658,0,0,1,.6-.947Z" transform="translate(-298.39 -177.524)" fill="#263238"/>
      <path id="Path_15007" data-name="Path 15007" d="M334.449,382.99l10.108-4.622-1.291-4.118-10.826,4.935Z" transform="translate(-298.042 -174.649)" fill="#407bff"/>
      <path id="Path_15008" data-name="Path 15008" d="M323.416,167.708c-.833-2.17-8.137-4.584-11.8-5.348L310,174.37s5.99,8.6,8.61,7.892C321.712,181.422,325.219,172.361,323.416,167.708Z" transform="translate(-292.747 -124.643)" fill="#407bff"/>
      <path id="Path_15009" data-name="Path 15009" d="M323.416,167.708c-.833-2.17-8.137-4.584-11.8-5.348L310,174.37s5.99,8.6,8.61,7.892C321.712,181.422,325.219,172.361,323.416,167.708Z" transform="translate(-292.747 -124.643)" opacity="0.4"/>
      <path id="Path_15010" data-name="Path 15010" d="M316.834,168s-3.056,1.07,3.056,38.62h25.976c-.435-10.574-.451-17.1,4.584-38.811a76.611,76.611,0,0,0-11.04-1.452,82.05,82.05,0,0,0-11.8,0A108.906,108.906,0,0,0,316.834,168Z" transform="translate(-294.179 -125.536)" fill="#407bff"/>
      <path id="Path_15011" data-name="Path 15011" d="M316.834,168s-3.056,1.07,3.056,38.62h25.976c-.435-10.574-.451-17.1,4.584-38.811a76.611,76.611,0,0,0-11.04-1.452,82.05,82.05,0,0,0-11.8,0A108.906,108.906,0,0,0,316.834,168Z" transform="translate(-294.179 -125.536)" opacity="0.4"/>
      <path id="Path_15012" data-name="Path 15012" d="M347.2,217.067l1.169,2.292c.092.183-.122.367-.42.367H320.69c-.237,0-.428-.115-.443-.267l-.237-2.292c0-.16.191-.3.443-.3h26.289A.466.466,0,0,1,347.2,217.067Z" transform="translate(-295.109 -137.506)" fill="#407bff"/>
      <path id="Path_15013" data-name="Path 15013" d="M347.2,217.067l1.169,2.292c.092.183-.122.367-.42.367H320.69c-.237,0-.428-.115-.443-.267l-.237-2.292c0-.16.191-.3.443-.3h26.289A.466.466,0,0,1,347.2,217.067Z" transform="translate(-295.109 -137.506)" fill="#fff" opacity="0.3"/>
      <path id="Path_15014" data-name="Path 15014" d="M350.813,219.957h.7c.145,0,.252-.076.237-.16l-.329-3.056c0-.092-.13-.16-.267-.16h-.71c-.138,0-.245.069-.237.16l.329,3.056C350.531,219.865,350.653,219.957,350.813,219.957Z" transform="translate(-302.236 -137.439)" fill="#263238"/>
      <path id="Path_15015" data-name="Path 15015" d="M328.423,219.957h.7c.138,0,.244-.076.237-.16l-.328-3.056c0-.092-.13-.16-.275-.16h-.7c-.145,0-.244.069-.237.16l.329,3.056C328.156,219.865,328.278,219.957,328.423,219.957Z" transform="translate(-296.952 -137.439)" fill="#263238"/>
    </g>
  </g>
</svg>
