<svg height="24" viewBox="0 0 28.364 24" width="28.364" xmlns="http://www.w3.org/2000/svg"><path d="m4.182 3a2.181 2.181 0 0 0 -2.182 2.182v19.636a2.181 2.181 0 0 0 2.182 2.182h24a2.181 2.181 0 0 0 2.182-2.182v-17.454a2.181 2.181 0 0 0 -2.182-2.182h-16.147l-.673-1.123a2.181 2.181 0 0 0 -1.871-1.059zm10.909 6.545a5.448 5.448 0 0 1 4.547 8.455l3.862 3.865a1.091 1.091 0 1 1 -1.543 1.543l-3.857-3.861a5.453 5.453 0 1 1 -3-10zm0 2.182a3.273 3.273 0 0 0 0 6.545c1.809.001 3.273-3.272 3.273-3.272s-1.465-3.273-3.273-3.273z" fill="#6798c6" transform="translate(-2 -3)"/></svg>