<svg xmlns="http://www.w3.org/2000/svg" xmlns:xlink="http://www.w3.org/1999/xlink" width="69.715" height="69.316" viewBox="0 0 69.715 69.316">
  <defs>
    <filter id="Path_9447" x="0" y="0" width="69.387" height="69.316" filterUnits="userSpaceOnUse">
      <feOffset dy="3" input="SourceAlpha"/>
      <feGaussianBlur stdDeviation="2" result="blur"/>
      <feFlood flood-color="#ccdff5"/>
      <feComposite operator="in" in2="blur"/>
      <feComposite in="SourceGraphic"/>
    </filter>
  </defs>
  <g id="delete" transform="translate(2.82 1.447)">
    <g id="Group_54710" data-name="Group 54710" transform="translate(0 0)" opacity="0.6">
      <g id="Group_54708" data-name="Group 54708" transform="translate(66.948 34.557) rotate(137)">
        <path id="Path_9447-2" data-name="Path 9447" d="M38.141,3.788A25.178,25.178,0,0,1,46.7,18.157a33.645,33.645,0,0,1-1.031,16.885c-1.656,5.458-4.4,10.525-8.439,11.888s-9.391-.981-14.287-1.658-9.335.312-13.49-1.019a13.894,13.894,0,0,1-9.1-9.407c-1.057-4.418.7-9.585,3.433-13.12s6.436-5.444,9.7-9.218S19.593,3.094,23.852,1,33.79.377,38.141,3.788" transform="translate(0 0)" fill="#f3f7fc"/>
      </g>
      <g id="Group_54709" data-name="Group 54709" transform="translate(49.119 1.575) rotate(76)" opacity="0.9">
        <g transform="matrix(0.24, -0.97, 0.97, 0.24, -15.5, 49.67)" filter="url(#Path_9447)">
          <path id="Path_9447-3" data-name="Path 9447" d="M37.6,2.331C41.927,6,45.408,9.77,46.61,15.814a39.138,39.138,0,0,1-1.061,18.224c-1.664,5.894-4.41,11.368-8.451,12.846S27.72,45.844,22.83,45.122s-9.324.354-13.472-1.074A14.458,14.458,0,0,1,.288,33.913C-.76,29.148,1,23.567,3.741,19.747S10.18,13.859,13.45,9.78s10.211-5.4,14.469-7.668,5.338-3.454,9.677.219" transform="translate(51.94 3.02) rotate(76)" fill="#eaf2fa"/>
        </g>
      </g>
    </g>
    <path id="icons8_error" d="M22.993,18.394,13.858,2.573C12.74.639,10.916.639,9.8,2.573L.663,18.394c-1.118,1.934-.2,3.513,2.03,3.513h18.27C23.195,21.907,24.107,20.328,22.993,18.394ZM10.571,7.062a1.757,1.757,0,0,1,2.513-.007,1.865,1.865,0,0,1,.49,1.317c0,.451-.681,3.787-.909,6.211H11.022c-.2-2.424-.941-5.76-.941-6.211A1.866,1.866,0,0,1,10.571,7.062ZM13.059,18.6a1.757,1.757,0,0,1-2.463,0,1.641,1.641,0,0,1-.515-1.221,1.742,1.742,0,0,1,2.978-1.231,1.681,1.681,0,0,1,.515,1.231A1.641,1.641,0,0,1,13.059,18.6Z" transform="translate(19.824 15.869)" fill="#a85050"/>
  </g>
</svg>
