<svg xmlns="http://www.w3.org/2000/svg" width="16" height="13.566" viewBox="0 0 16 13.566">
  <path id="icons8_money_1" d="M0,2v9.846H16V2ZM3.1,3.231H12.9l.377.368a.858.858,0,0,0-.036.177.871.871,0,0,0,1.124.886l.407.4v3.73l-.406.4a.948.948,0,0,0-.181-.036.933.933,0,0,0-.944.922.839.839,0,0,0,.036.176l-.377.369H3.1l-.377-.368a.849.849,0,0,0,.036-.177.933.933,0,0,0-.944-.922.927.927,0,0,0-.18.036l-.407-.4V5.21l.406-.549a.883.883,0,0,0,.18.036.933.933,0,0,0,.944-.922A.838.838,0,0,0,2.725,3.6Zm4.9.96a2.928,2.928,0,0,0-3.077,2.75A2.928,2.928,0,0,0,8,9.692a2.927,2.927,0,0,0,3.076-2.751A2.928,2.928,0,0,0,8,4.191ZM12.615,6a.922.922,0,1,0,.922.922A.922.922,0,0,0,12.615,6ZM3.385,6a.923.923,0,1,0,.923.923A.923.923,0,0,0,3.385,6ZM0,12.462v1.231c1.44,0,9.872.124,13.947,1.579l.822.294v-3.1H13.538v1.456C8.888,12.533,1.406,12.462,0,12.462Z" transform="translate(0 -2)" fill="#fff"/>
</svg>
