<svg xmlns="http://www.w3.org/2000/svg" width="23.596" height="24" viewBox="0 0 23.596 24">
  <path id="icons8_news" d="M1.428,2.781a.511.511,0,0,0-.49.528v18.85a4.642,4.642,0,0,0,1.134,3.3,4.548,4.548,0,0,0,3.11,1.32H20.764a2.535,2.535,0,0,0,.429-.033,4.26,4.26,0,0,1-3.739-4.589V3.309a.51.51,0,0,0-.49-.528ZM18.435,6.33V22.159a3.29,3.29,0,0,0,3.279,3.565A2.875,2.875,0,0,0,24.5,22.919c.023-.229.031-.468.031-.726V8.922a2.575,2.575,0,0,0-1.67-2.476,1.923,1.923,0,0,0-.981.578,3.055,3.055,0,0,0-.628,1.865V21.714a.492.492,0,1,1-.981,0V8.905a4.129,4.129,0,0,1,.858-2.575ZM4.017,7.122h9.668a.53.53,0,0,1,0,1.056H4.017a.53.53,0,0,1,0-1.056Zm0,2.113h9.668a.53.53,0,0,1,0,1.056H4.017a.53.53,0,0,1,0-1.056Zm.23,4.226H7.572a.53.53,0,0,1,0,1.056H4.247a.53.53,0,0,1,0-1.056Zm5.654,0h3.785a.53.53,0,0,1,0,1.056H9.9a.53.53,0,0,1,0-1.056ZM4.247,15.573H7.572a.53.53,0,0,1,0,1.056H4.247a.53.53,0,0,1,0-1.056Zm5.654,0h3.785a.53.53,0,0,1,0,1.056H9.9a.53.53,0,0,1,0-1.056Zm0,2h3.785a.53.53,0,0,1,0,1.056H9.9a.53.53,0,0,1,0-1.056Zm-5.654.116H7.572a.53.53,0,0,1,0,1.056H4.247a.53.53,0,0,1,0-1.056Zm5.654,2h3.785a.53.53,0,0,1,0,1.056H9.9a.53.53,0,0,1,0-1.056ZM4.247,19.8H7.572a.53.53,0,0,1,0,1.056H4.247a.53.53,0,0,1,0-1.056ZM9.9,21.664h3.785a.53.53,0,0,1,0,1.056H9.9a.53.53,0,0,1,0-1.056Zm-5.654.248H7.572a.53.53,0,0,1,0,1.056H4.247a.53.53,0,0,1,0-1.056Z" transform="translate(-0.938 -2.781)" fill="#707070"/>
</svg>
