<svg xmlns="http://www.w3.org/2000/svg" width="24" height="24" viewBox="0 0 24 24">
  <path id="icons8_audio_skimming_1" d="M14.979,2.986a1.333,1.333,0,0,0-1.313,1.351V25.654a1.333,1.333,0,0,0,2.667,0V4.337a1.333,1.333,0,0,0-1.354-1.351ZM25.646,8.316a1.333,1.333,0,0,0-1.313,1.351V21.657a1.333,1.333,0,0,0,2.667,0V9.666a1.333,1.333,0,0,0-1.354-1.351ZM4.313,10.98A1.333,1.333,0,0,0,3,12.331v9.326a1.333,1.333,0,0,0,2.667,0V12.331A1.333,1.333,0,0,0,4.313,10.98Zm16,2.665A1.333,1.333,0,0,0,19,15v6.662a1.333,1.333,0,0,0,2.667,0V15a1.333,1.333,0,0,0-1.354-1.351ZM9.646,16.309A1.333,1.333,0,0,0,8.333,17.66v4a1.333,1.333,0,0,0,2.667,0v-4a1.333,1.333,0,0,0-1.354-1.351Z" transform="translate(-3 -2.986)" fill="#707070"/>
</svg>
