<svg xmlns="http://www.w3.org/2000/svg" width="19" height="19" viewBox="0 0 19 19">
  <path id="icons8_qr_code_1" d="M20,2.96A1.956,1.956,0,0,0,18.04,1H15.778a.444.444,0,0,0-.452.452.444.444,0,0,0,.452.452H18.04A1.049,1.049,0,0,1,19.1,2.96V5.222a.452.452,0,1,0,.9,0ZM1.452,5.675A.444.444,0,0,0,1.9,5.222V2.96A1.049,1.049,0,0,1,2.96,1.9H5.222a.444.444,0,0,0,.452-.452A.444.444,0,0,0,5.222,1H2.96A1.956,1.956,0,0,0,1,2.96V5.222A.444.444,0,0,0,1.452,5.675ZM2.96,20H5.222a.452.452,0,1,0,0-.9H2.96A1.049,1.049,0,0,1,1.9,18.04V15.778a.444.444,0,0,0-.452-.452A.444.444,0,0,0,1,15.778V18.04A1.956,1.956,0,0,0,2.96,20ZM20,18.04V15.778a.452.452,0,1,0-.9,0V18.04A1.049,1.049,0,0,1,18.04,19.1H15.778a.452.452,0,1,0,0,.9H18.04A1.956,1.956,0,0,0,20,18.04Zm-3.468-4.976H13.516a.444.444,0,0,0-.452.452v3.016a.444.444,0,0,0,.452.452h3.016a.444.444,0,0,0,.452-.452V13.516A.444.444,0,0,0,16.532,13.063Zm-.452,3.016H13.968V13.968h2.111Zm-6.484.9a.444.444,0,0,0,.452-.452V15.476H11.4a.444.444,0,0,0,.452-.452V12.008a.452.452,0,0,0-.9,0v2.563H9.6a.444.444,0,0,0-.452.452v1.508A.444.444,0,0,0,9.6,16.984Zm6.937-9.048a.444.444,0,0,0,.452-.452V4.468a.444.444,0,0,0-.452-.452H13.516a.444.444,0,0,0-.452.452V7.484a.444.444,0,0,0,.452.452ZM13.968,4.921h2.111V7.032H13.968Zm-9.5,3.016H7.484a.444.444,0,0,0,.452-.452V4.468a.444.444,0,0,0-.452-.452H4.468a.444.444,0,0,0-.452.452V7.484A.444.444,0,0,0,4.468,7.937Zm.452-3.016H7.032V7.032H4.921Zm-.452,6.032h.754a.452.452,0,1,0,0-.9H4.468a.452.452,0,1,0,0,.9Zm5.127,0a.444.444,0,0,0,.452-.452V7.937H11.4a.444.444,0,0,0,.452-.452V4.468a.452.452,0,1,0-.9,0V7.032a5.113,5.113,0,0,0-1.357,0c-.452.113-.452.2-.452.452v2.563h-.9a.444.444,0,0,0-.452.452c0,.256.452.452.452.452ZM12.31,9.6a.444.444,0,0,0,.452.452h1.357V11.4a.444.444,0,0,0,.452.452h1.96a.452.452,0,1,0,0-.9H15.024V9.6a.444.444,0,0,0-.452-.452h-1.81A.444.444,0,0,0,12.31,9.6ZM7.937,16.532V13.516a.444.444,0,0,0-.452-.452H4.468a.444.444,0,0,0-.452.452v3.016a.444.444,0,0,0,.452.452H7.484A.444.444,0,0,0,7.937,16.532Zm-.9-.452H4.921V13.968H7.032Z" transform="translate(-1 -1)" fill="#707070"/>
</svg>
